<?xml version="1.0" encoding="UTF-8"?>
<svg width="3300px" height="2200px" viewBox="0 0 3300 2200" version="1.1" xmlns="http://www.w3.org/2000/svg" xmlns:xlink="http://www.w3.org/1999/xlink">
    <!-- Generator: Sketch 64 (93537) - https://sketch.com -->
    <title>person.green</title>
    <desc>Created with Sketch.</desc>
    <g id="Page-1" stroke="none" stroke-width="1" fill="none" fill-rule="evenodd">
        <g id="person.green">
            <g id="person.3">
                <g id="Notes">
                    <rect id="artboard" fill="#FFFFFF" fill-rule="nonzero" x="0" y="0" width="3300" height="2200"></rect>
                    <line x1="263" y1="292" x2="3036" y2="292" id="Path" stroke="#000000" stroke-width="0.5"></line>
                    <text id="Weight/Scale-Variations" fill="#000000" font-family="Helvetica-Bold, Helvetica" font-size="13" font-weight="bold">
                        <tspan x="263" y="322">Weight/Scale Variations</tspan>
                    </text>
                    <text id="Ultralight" fill="#000000" font-family="Helvetica" font-size="13" font-weight="normal">
                        <tspan x="533.711" y="322">Ultralight</tspan>
                    </text>
                    <text id="Thin" fill="#000000" font-family="Helvetica" font-size="13" font-weight="normal">
                        <tspan x="843.422" y="322">Thin</tspan>
                    </text>
                    <text id="Light" fill="#000000" font-family="Helvetica" font-size="13" font-weight="normal">
                        <tspan x="1138.63" y="322">Light</tspan>
                    </text>
                    <text id="Regular" fill="#000000" font-family="Helvetica" font-size="13" font-weight="normal">
                        <tspan x="1426.84" y="322">Regular</tspan>
                    </text>
                    <text id="Medium" fill="#000000" font-family="Helvetica" font-size="13" font-weight="normal">
                        <tspan x="1723.06" y="322">Medium</tspan>
                    </text>
                    <text id="Semibold" fill="#000000" font-family="Helvetica" font-size="13" font-weight="normal">
                        <tspan x="2015.77" y="322">Semibold</tspan>
                    </text>
                    <text id="Bold" fill="#000000" font-family="Helvetica" font-size="13" font-weight="normal">
                        <tspan x="2326.48" y="322">Bold</tspan>
                    </text>
                    <text id="Heavy" fill="#000000" font-family="Helvetica" font-size="13" font-weight="normal">
                        <tspan x="2618.19" y="322">Heavy</tspan>
                    </text>
                    <text id="Black" fill="#000000" font-family="Helvetica" font-size="13" font-weight="normal">
                        <tspan x="2917.4" y="322">Black</tspan>
                    </text>
                    <line x1="263" y1="1903" x2="3036" y2="1903" id="Path" stroke="#000000" stroke-width="0.5"></line>
                    <g id="Group" transform="translate(264.000000, 1918.000000)" fill="#000000" fill-rule="nonzero">
                        <path d="M8.24805,15.830078 C12.5547,15.830078 16.1387,12.25586 16.1387,7.94922 C16.1387,3.6426 12.5449,0.0684 8.23828,0.0684 C3.94141,0.0684 0.36719,3.6426 0.36719,7.94922 C0.36719,12.25586 3.95117,15.830078 8.24805,15.830078 Z M8.24805,14.345703 C4.70312,14.345703 1.87109,11.50391 1.87109,7.94922 C1.87109,4.3945 4.69336,1.5527 8.23828,1.5527 C11.793,1.5527 14.6348,4.3945 14.6445252,7.94922 C14.6543,11.50391 11.8027,14.345703 8.24805,14.345703 Z M8.22852,11.57227 C8.69727,11.57227 8.9707,11.25977 8.9707,10.74219 L8.9707,8.68164 L11.1973,8.68164 C11.6953,8.68164 12.0371,8.42773 12.0371,7.95898 C12.0371,7.48047 11.7148,7.2168 11.1973,7.2168 L8.9707,7.2168 L8.9707,4.9902 C8.9707,4.4727 8.69727,4.1504 8.22852,4.1504 C7.75977,4.1504 7.50586,4.4922 7.50586,4.9902 L7.50586,7.2168 L5.29883,7.2168 C4.78125,7.2168 4.44922,7.48047 4.44922,7.95898 C4.44922,8.42773 4.80078,8.68164 5.29883,8.68164 L7.50586,8.68164 L7.50586,10.74219 C7.50586,11.24023 7.75977,11.57227 8.22852,11.57227 Z" id="Shape"></path>
                    </g>
                    <g id="Group" transform="translate(282.506000, 1915.000000)" fill="#000000" fill-rule="nonzero">
                        <path d="M10.709,20.91016 C16.1582,20.91016 20.6699,16.39844 20.6699,10.94922 C20.6699,5.5098 16.1484,0.9883 10.6992,0.9883 C5.25977,0.9883 0.74805,5.5098 0.74805,10.94922 C0.74805,16.39844 5.26953,20.91016 10.709,20.91016 Z M10.709,19.25 C6.09961,19.25 2.41797,15.55859 2.41797,10.94922 C2.41797,6.3496 6.08984,2.6484 10.6992,2.6484 C15.3086,2.6484 19,6.3496 19.009819,10.94922 C19.0195,15.55859 15.3184,19.25 10.709,19.25 Z M10.6895,15.58789 C11.207,15.58789 11.5195,15.22656 11.5195,14.66016 L11.5195,11.76953 L14.5762,11.76953 C15.123,11.76953 15.5039,11.48633 15.5039,10.96875 C15.5039,10.44141 15.1426,10.13867 14.5762,10.13867 L11.5195,10.13867 L11.5195,7.0723 C11.5195,6.4961 11.207,6.1445 10.6895,6.1445 C10.1719,6.1445 9.8789,6.5156 9.8789,7.0723 L9.8789,10.13867 L6.83203,10.13867 C6.26562,10.13867 5.89453,10.44141 5.89453,10.96875 C5.89453,11.48633 6.28516,11.76953 6.83203,11.76953 L9.8789,11.76953 L9.8789,14.66016 C9.8789,15.20703 10.1719,15.58789 10.6895,15.58789 Z" id="Shape"></path>
                    </g>
                    <g id="Group" transform="translate(306.924000, 1913.000000)" fill="#000000" fill-rule="nonzero">
                        <path d="M12.9707,25.67383 C19.9336,25.67383 25.6953,19.921875 25.6953,12.95898 C25.6953,5.9961 19.9238,0.2441 12.9609,0.2441 C6.00781,0.2441 0.25586,5.9961 0.25586,12.95898 C0.25586,19.921875 6.01758,25.67383 12.9707,25.67383 Z M12.9707,23.85742 C6.93555,23.85742 2.08203,18.99414 2.08203,12.95898 C2.08203,6.9238 6.92578,2.0605 12.9609,2.0605 C19.0059,2.0605 23.8594,6.9238 23.8691148,12.95898 C23.8789,18.99414 19.0156,23.85742 12.9707,23.85742 Z M12.9512,18.93555 C13.5176,18.93555 13.8691,18.54492 13.8691,17.93945 L13.8691,13.86719 L18.1074,13.86719 C18.6934,13.86719 19.1133,13.53516 19.1133,12.97852 C19.1133,12.40234 18.7227,12.06055 18.1074,12.06055 L13.8691,12.06055 L13.8691,7.8125 C13.8691,7.1973 13.5176,6.8066 12.9512,6.8066 C12.3848,6.8066 12.0625,7.2168 12.0625,7.8125 L12.0625,12.06055 L7.83398,12.06055 C7.21875,12.06055 6.80859,12.40234 6.80859,12.97852 C6.80859,13.53516 7.23828,13.86719 7.83398,13.86719 L12.0625,13.86719 L12.0625,17.93945 C12.0625,18.52539 12.3848,18.93555 12.9512,18.93555 Z" id="Shape"></path>
                    </g>
                    <text id="Design-Variations" fill="#000000" font-family="Helvetica-Bold, Helvetica" font-size="13" font-weight="bold">
                        <tspan x="263" y="1953">Design Variations</tspan>
                    </text>
                    <text id="Symbols-are-supported-in-up-to-nine-weights-and-three-scales." fill="#000000" font-family="Helvetica" font-size="13" font-weight="normal">
                        <tspan x="263" y="1971">Symbols are supported in up to nine weights and three scales.</tspan>
                    </text>
                    <text id="For-optimal-layout-with-text-and-other-symbols,-vertically-align" fill="#000000" font-family="Helvetica" font-size="13" font-weight="normal">
                        <tspan x="263" y="1989">For optimal layout with text and other symbols, vertically align</tspan>
                    </text>
                    <text id="symbols-with-the-adjacent-text." fill="#000000" font-family="Helvetica" font-size="13" font-weight="normal">
                        <tspan x="263" y="2007">symbols with the adjacent text.</tspan>
                    </text>
                    <rect id="Rectangle" fill="#00AEEF" fill-rule="nonzero" opacity="0.4" x="776" y="1919" width="3" height="14"></rect>
                    <g id="Group" transform="translate(779.000000, 1918.000000)" fill="#000000" fill-rule="nonzero">
                        <path d="M10.5273,15 L12.373,15 L7.17773,0.9082 L5.43945,0.9082 L0.244141,15 L2.08984,15 L3.50586,10.9668 L9.11133,10.9668 L10.5273,15 Z M6.2793,3.0469 L6.33789,3.0469 L8.59375,9.47266 L4.02344,9.47266 L6.2793,3.0469 Z" id="Shape"></path>
                    </g>
                    <rect id="Rectangle" fill="#00AEEF" fill-rule="nonzero" opacity="0.4" x="791.617" y="1919" width="3" height="14"></rect>
                    <text id="Margins" fill="#000000" font-family="Helvetica-Bold, Helvetica" font-size="13" font-weight="bold">
                        <tspan x="776" y="1953">Margins</tspan>
                    </text>
                    <text id="Leading-and-trailing-margins-on-the-left-and-right-side-of-each-symbol" fill="#000000" font-family="Helvetica" font-size="13" font-weight="normal">
                        <tspan x="776" y="1971">Leading and trailing margins on the left and right side of each symbol</tspan>
                    </text>
                    <text id="can-be-adjusted-by-modifying-the-width-of-the-blue-rectangles." fill="#000000" font-family="Helvetica" font-size="13" font-weight="normal">
                        <tspan x="776" y="1989">can be adjusted by modifying the width of the blue rectangles.</tspan>
                    </text>
                    <text id="Modifications-are-automatically-applied-proportionally-to-all" fill="#000000" font-family="Helvetica" font-size="13" font-weight="normal">
                        <tspan x="776" y="2007">Modifications are automatically applied proportionally to all</tspan>
                    </text>
                    <text id="scales-and-weights." fill="#000000" font-family="Helvetica" font-size="13" font-weight="normal">
                        <tspan x="776" y="2025">scales and weights.</tspan>
                    </text>
                    <g id="Group" transform="translate(1291.000000, 1915.000000)" fill="#000000" fill-rule="nonzero">
                        <path d="M0.83203,21.11523 L2.375,22.6582 C3.22461,23.48828 4.19141,23.41992 5.06055,22.46289 L15.2754,11.33984 C15.7051,11.63281 16.0957,11.62305 16.5645,11.52539 L17.6094,11.31055 L18.3027,12.00391 L18.2539,12.52148 C18.1855,13.04883 18.3516,13.46875 18.8496,13.9668 L19.6602,14.77734 C20.168,15.28516 20.8223,15.31445 21.3008,14.83594 L24.5527,11.58398 C25.0312,11.10547 25.0117,10.45117 24.5039,9.94336 L23.6836,9.12305 C23.1855,8.625 22.7754,8.44922 22.2383,8.52734 L21.7109,8.58594 L21.0566,7.9219 L21.3398,6.7793 C21.4863,6.2129 21.3398,5.7441 20.7148,5.1387 L18.3027,2.7461 C14.7578,-0.7793 10.2266,-0.6719 7.11133,2.4629 C6.69141,2.8926 6.64258,3.4785 6.91602,3.9082 C7.15039,4.2793 7.62891,4.5039 8.2734,4.3379 C9.7871,3.957 11.3008,4.0742 12.7852,5.0801 L12.1602,6.6621 C11.9258,7.248 11.9453,7.7266 12.1797,8.16602 L1.01758,18.439453 C0.08008,19.30859 -0.02734,20.25586 0.83203,21.11523 Z M8.6738,2.8535 C11.3398,0.8613 14.6504,1.1738 17.0527,3.5859 L19.6797,6.1934 C19.9141,6.4277 19.9434,6.6133 19.8848,6.9062 L19.5039,8.46875 L21.0762,10.04102 L22.043,9.95312 C22.3262,9.92383 22.4141,9.94336 22.6387,10.16797 L23.2637,10.79297 L20.5098,13.53711 L19.8848,12.92188 C19.6602,12.69727 19.6406,12.59961 19.6699,12.31641 L19.7578,11.35938 L18.1953,9.79688 L16.5742,10.10938 C16.291,10.16797 16.1445,10.16797 15.9102,9.92383 L13.7324,7.7461 C13.5078,7.5117 13.4785,7.375 13.6055,7.0527 L14.5527,4.7773 C12.9512,3.2441 10.8418,2.3945 8.8008,3.0488 C8.7129,3.0781 8.6445,3.0586 8.6152,3.0195 C8.5859,2.9707 8.5859,2.9219 8.6738,2.8535 Z M2.10156,20.41211 C1.61328,19.91406 1.78906,19.61133 2.12109,19.30859 L13.0781,9.19141 L14.3086,10.42188 L4.15234,21.34961 C3.84961,21.68164 3.46875,21.7793 3.06836,21.37891 L2.10156,20.41211 Z" id="Shape"></path>
                    </g>
                    <text id="Exporting" fill="#000000" font-family="Helvetica-Bold, Helvetica" font-size="13" font-weight="bold">
                        <tspan x="1289" y="1953">Exporting</tspan>
                    </text>
                    <text id="Symbols-should-be-outlined-when-exporting-to-ensure-the" fill="#000000" font-family="Helvetica" font-size="13" font-weight="normal">
                        <tspan x="1289" y="1971">Symbols should be outlined when exporting to ensure the</tspan>
                    </text>
                    <text id="design-is-preserved-when-submitting-to-Xcode." fill="#000000" font-family="Helvetica" font-size="13" font-weight="normal">
                        <tspan x="1289" y="1989">design is preserved when submitting to Xcode.</tspan>
                    </text>
                    <text id="template-version" fill="#000000" font-family="Helvetica" font-size="13" font-weight="normal">
                        <tspan x="2952" y="1933">Template v.1.0</tspan>
                    </text>
                    <text id="Generated-from-person.3" fill="#000000" font-family="Helvetica" font-size="13" font-weight="normal">
                        <tspan x="2890" y="1951">Generated from person.3</tspan>
                    </text>
                    <text id="Typeset-at-100-points" fill="#000000" font-family="Helvetica" font-size="13" font-weight="normal">
                        <tspan x="2912" y="1969">Typeset at 100 points</tspan>
                    </text>
                    <text id="Small" fill="#000000" font-family="Helvetica" font-size="13" font-weight="normal">
                        <tspan x="263" y="726">Small</tspan>
                    </text>
                    <text id="Medium" fill="#000000" font-family="Helvetica" font-size="13" font-weight="normal">
                        <tspan x="263" y="1156">Medium</tspan>
                    </text>
                    <text id="Large" fill="#000000" font-family="Helvetica" font-size="13" font-weight="normal">
                        <tspan x="263" y="1586">Large</tspan>
                    </text>
                </g>
                <g id="Guides" transform="translate(263.000000, 625.000000)">
                    <g id="H-reference" transform="translate(76.000000, 0.000000)" fill="#27AAE1" fill-rule="nonzero">
                        <path d="M54.9316,71 L57.666,71 L30.5664,0.541 L28.0762,0.541 L0.976562,71 L3.66211,71 L12.9395,46.5371 L45.7031,46.5371 L54.9316,71 Z M29.1992,3.9102 L29.4434,3.9102 L44.8242,44.291 L13.8184,44.291 L29.1992,3.9102 Z" id="Shape"></path>
                    </g>
                    <line x1="0" y1="71" x2="2773" y2="71" id="Baseline-S" stroke="#27AAE1" stroke-width="0.577"></line>
                    <line x1="0" y1="0.541" x2="2773" y2="0.541" id="Capline-S" stroke="#27AAE1" stroke-width="0.577"></line>
                    <g id="H-reference" transform="translate(76.000000, 430.000000)" fill="#27AAE1" fill-rule="nonzero">
                        <path d="M54.9316,71 L57.666,71 L30.5664,0.541 L28.0762,0.541 L0.976562,71 L3.66211,71 L12.9395,46.5371 L45.7031,46.5371 L54.9316,71 Z M29.1992,3.9102 L29.4434,3.9102 L44.8242,44.291 L13.8184,44.291 L29.1992,3.9102 Z" id="Shape"></path>
                    </g>
                    <line x1="0" y1="501" x2="2773" y2="501" id="Baseline-M" stroke="#27AAE1" stroke-width="0.577"></line>
                    <line x1="0" y1="430.54" x2="2773" y2="430.54" id="Capline-M" stroke="#27AAE1" stroke-width="0.577"></line>
                    <g id="H-reference" transform="translate(76.000000, 860.000000)" fill="#27AAE1" fill-rule="nonzero">
                        <path d="M54.9316,71 L57.666,71 L30.5664,0.541 L28.0762,0.541 L0.976562,71 L3.66211,71 L12.9395,46.5371 L45.7031,46.5371 L54.9316,71 Z M29.1992,3.9102 L29.4434,3.9102 L44.8242,44.291 L13.8184,44.291 L29.1992,3.9102 Z" id="Shape"></path>
                    </g>
                    <line x1="0" y1="931" x2="2773" y2="931" id="Baseline-L" stroke="#27AAE1" stroke-width="0.577"></line>
                    <line x1="0" y1="860.54" x2="2773" y2="860.54" id="Capline-L" stroke="#27AAE1" stroke-width="0.577"></line>
                    <rect id="left-margin" fill="#00AEEF" fill-rule="nonzero" opacity="0.4" x="1081.03" y="405.79" width="12.4512" height="119.336"></rect>
                    <rect id="right-margin" fill="#00AEEF" fill-rule="nonzero" opacity="0.4" x="1280.2" y="405.79" width="12.4512" height="119.336"></rect>
                </g>
                <g id="Symbols" transform="translate(441.000000, 624.000000)" fill="#000000" fill-rule="nonzero">
                    <g id="Black-L" transform="translate(2368.310000, 836.000000)">
                        <path d="M124.039,62.6016 C140.152,62.6016 152.945,48.7344 152.945,31.4492 C152.945,14.6523 139.957,0.8828 124.039,0.8828 C108.17,0.8828 95.133,14.7012 95.1818623,31.498 C95.23,48.7832 107.975,62.6016 124.039,62.6016 Z M49.625,63.9688 C63.6875,63.9688 74.9668,51.7617 74.9668,36.5273 C74.9668,21.7812 63.541,9.5742 49.625,9.5742 C35.7578,9.5742 24.2344,21.8789 24.2830456,36.5762 C24.332,51.8594 35.5625,63.9688 49.625,63.9688 Z M198.551,63.9688 C212.564,63.9688 223.844,51.8594 223.893149,36.5762 C223.941,21.8789 212.418,9.5742 198.551,9.5742 C184.635,9.5742 173.209,21.7812 173.209,36.5273 C173.209,51.7617 184.488,63.9688 198.551,63.9688 Z M124.039,46.6348 C117.154,46.6348 111.344,40.1895 111.344,31.4492 C111.246,23.2949 117.252,16.8008 124.039,16.8008 C130.924,16.8008 136.783,23.2461 136.783,31.4492 C136.783,40.0918 131.021,46.6348 124.039,46.6348 Z M49.625,48.3438 C44.4004,48.3438 39.9082,43.2656 39.9082,36.5762 C39.8594,30.3262 44.498,25.248 49.625,25.248 C54.8008,25.248 59.3418,30.3262 59.3418,36.5273 C59.3418,43.2656 54.9473,48.3438 49.625,48.3438 Z M198.551,48.3438 C193.229,48.3438 188.834,43.2656 188.834,36.5273 C188.834,30.3262 193.375,25.248 198.551,25.248 C203.678,25.248 208.316,30.3262 208.219,36.5762 C208.219,43.2656 203.775,48.3438 198.551,48.3438 Z M85.953,122.5137 L162.174,122.5137 C174.527,122.5137 180.777,118.1191 180.777,109.0371 C180.777,89.35938 156.705,68.5586 124.039,68.5586 C91.373,68.5586 67.3496,89.35938 67.3496,109.0371 C67.3496,118.1191 73.5996,122.5137 85.953,122.5137 Z M16.2754,122.5625 L63.1016,122.5625 C58.2188,119.4863 55.8262,112.3574 56.4609,106.8887 L18.4727,106.8887 C17.7402,106.8887 17.5449,106.4004 17.5449,105.96094 C17.5449,95.414062 31.7051,84.1836 49.625,84.1836 C53.7266,84.1836 60.3672,85.3555 63.7363,86.57617 C66.2266,81.7422 69.9375,77.6895 75.4551,74.418 C67.9844,70.9023 57.4863,68.6074 49.625,68.6074 C22.3789,68.6074 0.0645,87.21094 0.0645,108.3047 C0.0645,117.4355 5.4355,122.5625 16.2754,122.5625 Z M231.9,122.5625 C242.74,122.5625 248.111,117.4355 248.111,108.3047 C248.111,87.21094 225.797,68.6074 198.551,68.6074 C190.641,68.6074 180.143,70.9023 172.721,74.418 C178.189,77.6895 181.949,81.7422 184.439,86.57617 C187.809,85.3555 194.449,84.1836 198.551,84.1836 C216.471,84.1836 230.631,95.414062 230.631,105.96094 C230.631,106.4004 230.436,106.8887 229.703,106.8887 L191.715,106.8887 C192.35,112.3574 189.908,119.4863 185.025,122.5625 L231.9,122.5625 Z M86.832,106.5469 C86.051,106.5469 85.855,106.1074 85.855,105.52148 C85.855,98.49023 99.967,84.4766 124.039,84.4766 C148.16,84.4766 162.271,98.49023 162.271,105.52148 C162.271,106.1074 162.027,106.5469 161.295,106.5469 L86.832,106.5469 Z" id="Shape"></path>
                    </g>
                    <g id="Heavy-L" transform="translate(2072.530000, 837.000000)">
                        <path d="M123.111,61.2109 C138.883,61.2109 151.48,47.5391 151.48,30.5469 C151.48,13.9453 138.785,0.4688 123.111,0.4688 C107.535,0.4688 94.693,14.043 94.7418602,30.5957 C94.84,47.5879 107.34,61.2109 123.111,61.2109 Z M49.1367,62.627 C62.9062,62.627 73.9902,50.5664 73.9902,35.5762 C73.9902,21.0742 62.8086,9.1113 49.1367,9.1113 C35.5137,9.1113 24.2344,21.2207 24.2830422,35.625 C24.332,50.6641 35.3672,62.627 49.1367,62.627 Z M197.184,62.627 C210.904,62.627 221.939,50.6641 222.037159,35.625 C222.086,21.2207 210.807,9.1113 197.184,9.1113 C183.512,9.1113 172.33,21.0742 172.33,35.5762 C172.33,50.5664 183.365,62.627 197.184,62.627 Z M123.111,47.0996 C115.543,47.0996 109.145736,40.0195 109.145736,30.5469 C109.098,21.6113 115.592,14.5312 123.111,14.5312 C130.729,14.5312 137.125,21.5625 137.125,30.5469 C137.125,39.9219 130.826,47.0996 123.111,47.0996 Z M49.1367,48.7598 C43.1797,48.7598 38.1504,43.0469 38.1504,35.625 C38.1016,28.6914 43.2285,22.9785 49.1367,22.9785 C55.0449,22.9785 60.1719,28.6426 60.1719,35.5762 C60.1719,43.0469 55.1426,48.7598 49.1367,48.7598 Z M197.184,48.7598 C191.129,48.7598 186.148,43.0469 186.148,35.5762 C186.148,28.6426 191.227,22.9785 197.184,22.9785 C203.092,22.9785 208.219,28.6914 208.17,35.625 C208.17,43.0469 203.141,48.7598 197.184,48.7598 Z M15.25,120.8789 L63.1016,120.8789 C58.7559,118.1934 56.4121,111.9922 56.9492,107.0117 L16.666,107.0117 C15.6406,107.0117 15.2988,106.4746 15.2988,105.6934 C15.2988,93.7793 30.4355,81.6699 49.1367,81.6699 C54.3125,81.6699 61.2461,83.1348 65.3477,85.03906 C67.6426,80.8398 70.9629,77.3242 75.748,74.3945 C68.082,70.3418 57.6816,67.9004 49.1367,67.9004 C21.9883,67.9004 0.0645,86.74805 0.0645,107.5977 C0.0645,116.1914 5.0938,120.8789 15.25,120.8789 Z M231.07,120.8789 C241.227,120.8789 246.256,116.1914 246.256,107.5977 C246.256,86.74805 224.332,67.9004 197.184,67.9004 C188.59,67.9004 178.189,70.3418 170.572,74.3945 C175.309,77.3242 178.629,80.8398 180.973,85.03906 C185.074,83.1348 192.008,81.6699 197.184,81.6699 C215.885,81.6699 231.021,93.7793 231.021,105.6934 C231.021,106.4746 230.68,107.0117 229.654,107.0117 L189.371,107.0117 C189.859,111.9922 187.564,118.1934 183.219,120.8789 L231.07,120.8789 Z M84.488,120.8301 L161.734,120.8301 C173.453,120.8301 179.312,116.7773 179.312,108.2812 C179.312,89.33594 156.07,67.9004 123.111,67.9004 C90.152,67.9004 66.9102,89.33594 66.9102,108.2812 C66.9102,116.7773 72.7695,120.8301 84.488,120.8301 Z M84.635,106.7188 C83.4629,106.7188 83.0723,106.2305 83.0723,105.4004 C83.0723,97.34375 97.77,82.0117 123.111,82.0117 C148.453,82.0117 163.15,97.34375 163.15,105.4004 C163.15,106.2305 162.76,106.7188 161.637,106.7188 L84.635,106.7188 Z" id="Shape"></path>
                    </g>
                    <g id="Bold-L" transform="translate(1776.870000, 838.000000)">
                        <path d="M122.086,59.8203 C137.516,59.8203 149.918,46.3438 149.918,29.6445 C149.918,13.2871 137.467,0.1035 122.086,0.1035 C106.803,0.1035 94.254,13.4336 94.302857,29.6934 C94.352,46.3926 106.656,59.8203 122.086,59.8203 Z M48.5996,61.1875 C62.0762,61.1875 72.916,49.4199 72.916,34.6738 C72.916,20.416 61.9785,8.7461 48.5996,8.7461 C35.2695,8.7461 24.2344,20.5625 24.2830388,34.7227 C24.3809,49.4688 35.1719,61.1875 48.5996,61.1875 Z M195.621,61.1875 C209.098,61.1875 219.889,49.4688 219.938156,34.7227 C219.986,20.5625 208.951,8.7461 195.621,8.7461 C182.242,8.7461 171.354,20.416 171.354,34.6738 C171.354,49.4199 182.145,61.1875 195.621,61.1875 Z M122.086,47.7598 C113.688,47.7598 106.704747,39.9473 106.704747,29.6934 C106.656,19.8789 113.736,12.1641 122.086,12.1641 C130.533,12.1641 137.516,19.7812 137.516,29.6445 C137.516,39.8496 130.582,47.7598 122.086,47.7598 Z M48.5996,49.3711 C41.8125,49.3711 36.1484,42.9746 36.1484,34.7227 C36.1484,26.959 41.8613,20.5625 48.5996,20.5625 C55.3867,20.5625 61.0996,26.8613 61.0996,34.6738 C61.0996,42.9746 55.4355,49.3711 48.5996,49.3711 Z M195.621,49.3711 C188.785,49.3711 183.17,42.9746 183.17,34.6738 C183.17,26.8613 188.834,20.5625 195.621,20.5625 C202.359,20.5625 208.121,26.959 208.072,34.7227 C208.072,42.9746 202.408,49.3711 195.621,49.3711 Z M14.127,119.0977 L63.1016,119.0977 C59.3418,116.8516 57.0957,111.6758 57.4863,107.2812 L14.6152,107.2812 C13.3457,107.2812 12.8086,106.6953 12.8086,105.5723 C12.8086,92.0957 28.9707,79.0098 48.5508,79.0098 C54.9473,79.0098 62.2227,80.7676 67.1543,83.502 C69.2539,79.9863 72.1348,77.0566 76.041,74.5664 C68.2285,69.8789 57.9258,67.2422 48.5508,67.2422 C21.5488,67.2422 0.0645,86.28516 0.0645,106.9883 C0.0645,114.8984 4.752,119.0977 14.127,119.0977 Z M230.094,119.0977 C239.469,119.0977 244.156,114.8984 244.156,106.9883 C244.156,86.28516 222.721,67.2422 195.67,67.2422 C186.295,67.2422 176.041,69.8789 168.18,74.5664 C172.086,77.0566 174.967,79.9863 177.066,83.502 C181.998,80.7676 189.273,79.0098 195.67,79.0098 C215.25,79.0098 231.412,92.0957 231.412,105.5723 C231.412,106.6953 230.924,107.2812 229.605,107.2812 L186.734,107.2812 C187.125,111.6758 184.879,116.8516 181.168,119.0977 L230.094,119.0977 Z M82.877,119.0977 L161.246,119.0977 C172.281,119.0977 177.701,115.3867 177.701,107.5742 C177.701,89.50781 155.338,67.291 122.086,67.291 C88.834,67.291 66.4219,89.50781 66.4219,107.5742 C66.4219,115.3867 71.8418,119.0977 82.877,119.0977 Z M82.1445,107.0371 C80.5332,107.0371 79.9961,106.5 79.9961,105.3281 C79.9961,96.14844 95.328,79.3516 122.086,79.3516 C148.795,79.3516 164.127,96.14844 164.127,105.3281 C164.127,106.5 163.59,107.0371 161.979,107.0371 L82.1445,107.0371 Z" id="Shape"></path>
                    </g>
                    <g id="Semibold-L" transform="translate(1480.860000, 838.000000)">
                        <path d="M121.402,59.5273 C136.588,59.5273 148.795,46.1973 148.795,29.6934 C148.795,13.5312 136.539,0.543 121.402,0.543 C106.314,0.543 93.912,13.6777 93.9608553,29.791 C94.01,46.2461 106.168,59.5273 121.402,59.5273 Z M48.209,60.9434 C61.4902,60.9434 72.1348,49.2734 72.1348,34.7227 C72.1348,20.6113 61.3926,9.1367 48.209,9.1367 C35.123,9.1367 24.2344,20.8066 24.332,34.8203 C24.3809,49.3223 34.9766,60.9434 48.209,60.9434 Z M194.596,60.9434 C207.779,60.9434 218.424,49.3223 218.473159,34.8203 C218.521,20.8066 207.682,9.1367 194.596,9.1367 C181.363,9.1367 170.67,20.6113 170.67,34.7227 C170.67,49.2734 181.314,60.9434 194.596,60.9434 Z M121.402,48.8828 C112.467,48.8828 104.995762,40.582 104.995762,29.7422 C104.947,19.3906 112.467,11.1875 121.402,11.1875 C130.387,11.1875 137.76,19.2441 137.76,29.6934 C137.76,40.4844 130.387,48.8828 121.402,48.8828 Z M48.209,50.4453 C40.8848,50.4453 34.7812,43.5605 34.7812,34.8203 C34.7812,26.4707 40.8848,19.6348 48.209,19.6348 C55.6309,19.6348 61.6855,26.3242 61.6855,34.7227 C61.6855,43.5605 55.582,50.4453 48.209,50.4453 Z M194.596,50.4453 C187.174,50.4453 181.07,43.5605 181.07,34.7227 C181.07,26.3242 187.174,19.6348 194.596,19.6348 C201.871,19.6348 208.023,26.4707 208.023,34.8203 C208.023,43.5605 201.92,50.4453 194.596,50.4453 Z M13.3457,118.5605 L63.0527,118.5605 C59.7324,116.6074 57.5352,112.1641 57.877,108.1602 L13.248,108.1602 C11.7344,108.1602 11.0996,107.5254 11.0996,106.1582 C11.0996,91.60742 27.9941,77.8867 48.1602,77.8867 C55.4355,77.8867 62.9062,79.791 68.375,83.0625 C70.377,80.084 72.916,77.5449 76.2852,75.3477 C68.2773,70.2695 58.0723,67.4863 48.1602,67.4863 C21.207,67.4863 0.0645,86.67578 0.0645,107.2324 C0.0645,114.7031 4.5078,118.5605 13.3457,118.5605 Z M229.41,118.5605 C238.297,118.5605 242.74,114.7031 242.74,107.2324 C242.74,86.67578 221.598,67.4863 194.645,67.4863 C184.732,67.4863 174.527,70.2695 166.52,75.3477 C169.889,77.5449 172.428,80.084 174.43,83.0625 C179.898,79.791 187.369,77.8867 194.645,77.8867 C214.762,77.8867 231.705,91.60742 231.705,106.1582 C231.705,107.5254 231.07,108.1602 229.557,108.1602 L184.928,108.1602 C185.221,112.1641 183.072,116.6074 179.752,118.5605 L229.41,118.5605 Z M81.7539,118.5605 L160.904,118.5605 C171.451,118.5605 176.578,115.1426 176.578,107.7695 C176.578,90.28906 154.801,67.584 121.354,67.584 C87.906,67.584 66.0801,90.28906 66.0801,107.7695 C66.0801,115.1426 71.207,118.5605 81.7539,118.5605 Z M80.4355,107.916 C78.5312,107.916 77.8965,107.3789 77.8965,106.0117 C77.8965,96.00195 93.668,78.1797 121.354,78.1797 C149.039,78.1797 164.811,96.00195 164.811,106.0117 C164.811,107.3789 164.127,107.916 162.271,107.916 L80.4355,107.916 Z" id="Shape"></path>
                    </g>
                    <g id="Medium-L" transform="translate(1184.690000, 838.000000)">
                        <path d="M120.865,59.2832 C135.855,59.2832 147.965,46.0996 147.965,29.7422 C147.965,13.7266 135.855,0.9336 120.865,0.9336 C105.924,0.9336 93.668,13.873 93.7168536,29.8398 C93.766,46.1484 105.826,59.2832 120.865,59.2832 Z M47.916,60.6992 C61.002,60.6992 71.5488,49.1758 71.5488,34.7715 C71.5488,20.8066 61.002,9.4785 47.916,9.4785 C34.9766,9.4785 24.2832,21.002 24.3318336,34.8691 C24.3809,49.2246 34.8789,60.6992 47.916,60.6992 Z M193.766,60.6992 C206.852,60.6992 217.35,49.2246 217.398168,34.8691 C217.447,21.002 206.754,9.4785 193.766,9.4785 C180.729,9.4785 170.133,20.8066 170.133,34.7715 C170.133,49.1758 180.68,60.6992 193.766,60.6992 Z M120.865,49.7617 C111.49,49.7617 103.726771,41.0703 103.726771,29.8398 C103.678,19 111.49,10.4551 120.865,10.4551 C130.24,10.4551 137.955,18.8535 137.955,29.7422 C137.955,40.9238 130.24,49.7617 120.865,49.7617 Z M47.916,51.2754 C40.1523,51.2754 33.7559,44.0488 33.7559,34.8691 C33.7559,26.0801 40.2012,18.9023 47.916,18.9023 C55.7773,18.9023 62.1738,25.9336 62.1738,34.7715 C62.1738,44.0488 55.7285,51.2754 47.916,51.2754 Z M193.766,51.2754 C185.953,51.2754 179.508,44.0488 179.508,34.7715 C179.508,25.9336 185.953,18.9023 193.766,18.9023 C201.529,18.9023 207.975,26.0801 207.975,34.8691 C207.975,44.0488 201.529,51.2754 193.766,51.2754 Z M12.8086,118.1699 L63.0527,118.1699 C60.0254,116.4121 57.877,112.5059 58.1211,108.7949 L12.1738,108.7949 C10.5137,108.7949 9.8301,108.1602 9.8301,106.5977 C9.8301,91.26562 27.2617,77.0078 47.8672,77.0078 C55.7773,77.0078 63.4434,79.0586 69.3516,82.7695 C71.207,80.1816 73.502,77.8867 76.4316,75.9336 C68.3262,70.5137 58.1699,67.6328 47.8672,67.6328 C20.9629,67.6328 0.0645,86.96875 0.0645,107.3789 C0.0645,114.5566 4.3125,118.1699 12.8086,118.1699 Z M228.922,118.1699 C237.418,118.1699 241.666,114.5566 241.666,107.3789 C241.666,86.96875 220.719,67.6328 193.814,67.6328 C183.512,67.6328 173.355,70.5137 165.25,75.9336 C168.18,77.8867 170.523,80.1816 172.379,82.7695 C178.287,79.0586 185.953,77.0078 193.814,77.0078 C214.42,77.0078 231.9,91.26562 231.9,106.5977 C231.9,108.1602 231.217,108.7949 229.508,108.7949 L183.561,108.7949 C183.805,112.5059 181.656,116.4121 178.678,118.1699 L228.922,118.1699 Z M80.9238,118.1699 L160.66,118.1699 C170.865,118.1699 175.748,114.8984 175.748,107.916 C175.748,90.875 154.41,67.7793 120.816,67.7793 C87.174,67.7793 65.8359,90.875 65.8359,107.916 C65.8359,114.8984 70.7188,118.1699 80.9238,118.1699 Z M79.1172,108.5996 C77.0176,108.5996 76.2852,108.0137 76.2852,106.5 C76.2852,95.9043 92.398,77.3008 120.816,77.3008 C149.234,77.3008 165.348,95.9043 165.348,106.5 C165.348,108.0137 164.566,108.5996 162.467,108.5996 L79.1172,108.5996 Z" id="Shape"></path>
                    </g>
                    <g id="Regular-L" transform="translate(888.690000, 839.000000)">
                        <path d="M120.133,58.0391 C134.928,58.0391 146.891,44.9531 146.891,28.791 C146.891,12.9707 134.928,0.373 120.133,0.373 C105.436,0.373 93.326,13.1172 93.424,28.8887 C93.473,45.002 105.338,58.0391 120.133,58.0391 Z M120.133,49.8359 C110.27,49.8359 102.06579,40.6562 102.06579,28.8887 C102.018,17.4629 110.221,8.5273 120.133,8.5273 C130.094,8.5273 138.248,17.3652 138.248,28.791 C138.248,40.5586 130.094,49.8359 120.133,49.8359 Z M47.5742,59.4551 C60.416,59.4551 70.8164,48.0293 70.8164,33.8203 C70.8164,20.0508 60.416,8.8691 47.5742,8.8691 C34.7812,8.8691 24.2832,20.1973 24.3318305,33.918 C24.3809,48.0781 34.7324,59.4551 47.5742,59.4551 Z M192.74,59.4551 C205.582,59.4551 215.885,48.0781 215.98217,33.918 C216.031,20.1973 205.484,8.8691 192.74,8.8691 C179.85,8.8691 169.498,20.0508 169.498,33.8203 C169.498,48.0293 179.85,59.4551 192.74,59.4551 Z M47.5742,51.3496 C39.2246,51.3496 32.3887,43.6348 32.3887,33.918 C32.3887,24.543 39.2246,16.9258 47.5742,16.9258 C55.9727,16.9258 62.8086,24.4453 62.8086,33.8203 C62.8086,43.6348 55.9238,51.3496 47.5742,51.3496 Z M192.74,51.3496 C184.391,51.3496 177.506,43.6348 177.506,33.8203 C177.506,24.4453 184.293,16.9258 192.74,16.9258 C201.041,16.9258 207.926,24.543 207.926,33.918 C207.926,43.6348 201.041,51.3496 192.74,51.3496 Z M12.0273,116.6328 L63.0527,116.6328 C60.416,115.2168 58.3652,111.9941 58.5117,108.6738 L10.8066,108.6738 C8.9023,108.6738 8.1211,107.9902 8.1211,106.1836 C8.1211,89.77734 26.2852,74.8848 47.4766,74.8848 C56.2168,74.8848 64.0781,77.1309 70.5723,81.3789 C72.2812,79.2793 74.2832,77.4238 76.6758,75.666 C68.4238,69.9043 58.3164,66.877 47.4766,66.877 C20.6699,66.877 0.0645,86.31055 0.0645,106.623 C0.0645,113.3613 4.0684,116.6328 12.0273,116.6328 Z M228.287,116.6328 C236.246,116.6328 240.25,113.3613 240.25,106.623 C240.25,86.31055 219.645,66.877 192.789,66.877 C181.949,66.877 171.891,69.9043 163.639,75.666 C165.982,77.4238 167.984,79.2793 169.742,81.3789 C176.188,77.1309 184.049,74.8848 192.789,74.8848 C213.98,74.8848 232.193,89.77734 232.193,106.1836 C232.193,107.9902 231.363,108.6738 229.459,108.6738 L181.754,108.6738 C181.949,111.9941 179.85,115.2168 177.262,116.6328 L228.287,116.6328 Z M79.8008,116.6328 L160.367,116.6328 C170.035,116.6328 174.674,113.6543 174.674,107.0625 C174.674,90.65625 153.922,67.0234 120.084,67.0234 C86.246,67.0234 65.543,90.65625 65.543,107.0625 C65.543,113.6543 70.1328,116.6328 79.8008,116.6328 Z M77.457,108.4785 C75.0156,108.4785 74.1855,107.8926 74.1855,106.1348 C74.1855,94.75781 90.738,75.1777 120.084,75.1777 C149.43,75.1777 165.982,94.75781 165.982,106.1348 C165.982,107.8926 165.152,108.4785 162.711,108.4785 L77.457,108.4785 Z" id="Shape"></path>
                    </g>
                    <g id="Light-L" transform="translate(592.510000, 840.000000)">
                        <path d="M119.645,57.0879 C134.195,57.0879 145.719,44.3926 145.719,28.377 C145.719,12.8984 134.049,0.3984 119.645,0.3984 C105.24,0.3984 93.424,13.0449 93.521,28.4746 C93.619,44.4414 105.094,57.0879 119.645,57.0879 Z M119.645,50.7891 C108.854,50.7891 100.162,41.0723 100.162,28.4746 C100.064,16.4141 108.902,6.6973 119.645,6.6973 C130.338,6.6973 139.127,16.2676 139.127,28.377 C139.127,41.0234 130.436,50.7891 119.645,50.7891 Z M47.0371,58.5039 C59.7324,58.5039 69.791,47.4688 69.791,33.3574 C69.791,19.8809 59.5859,8.8457 47.0371,8.8457 C34.5859,8.8457 24.2832,20.0273 24.3809,33.4062 C24.4785,47.4688 34.3906,58.5039 47.0371,58.5039 Z M192.203,58.5039 C204.85,58.5039 214.811,47.4688 214.908,33.4062 C215.006,20.0273 204.703,8.8457 192.203,8.8457 C179.654,8.8457 169.449,19.8809 169.449,33.3574 C169.449,47.4688 179.508,58.5039 192.203,58.5039 Z M47.0371,52.2539 C37.9062,52.2539 30.6309,44.0508 30.6309,33.4062 C30.6309,23.3965 38.0039,15.0957 47.0371,15.0957 C56.168,15.0957 63.5898,23.2988 63.5898,33.3574 C63.5898,44.0508 56.2168,52.2539 47.0371,52.2539 Z M192.203,52.2539 C183.023,52.2539 175.699,44.0508 175.699,33.3574 C175.699,23.2988 183.121,15.0957 192.203,15.0957 C201.236,15.0957 208.658,23.3965 208.658,33.4062 C208.658,44.0508 201.334,52.2539 192.203,52.2539 Z M10.8555,114.9492 L63.9805,114.9492 C61.9297,113.875 60.1719,111.4336 59.9766,108.7969 L10.123,108.7969 C7.3887,108.7969 6.3145,107.8203 6.3145,105.3301 C6.3145,87.84961 24.9668,72.4688 46.9395,72.4688 C56.8027,72.4688 65.6895,75.2031 72.6719,80.4277 C74.0391,78.8652 75.6016,77.4492 77.3594,76.082 C68.9121,69.6855 58.4141,66.3164 46.9395,66.3164 C19.5957,66.3164 0.0645,86.14062 0.0645,105.623 C0.0645,111.9219 3.6289,114.9492 10.8555,114.9492 Z M228.385,114.9492 C235.611,114.9492 239.176,111.9219 239.176,105.623 C239.176,86.14062 219.693,66.3164 192.301,66.3164 C180.875,66.3164 170.328,69.6855 161.881,76.082 C163.688,77.4492 165.201,78.8652 166.617,80.4277 C173.6,75.2031 182.438,72.4688 192.301,72.4688 C214.273,72.4688 232.926,87.84961 232.926,105.3301 C232.926,107.8203 231.9,108.7969 229.117,108.7969 L179.264,108.7969 C179.117,111.4336 177.311,113.875 175.26,114.9492 L228.385,114.9492 Z M78.3359,114.9492 L160.758,114.9492 C169.352,114.9492 173.453,112.166 173.453,106.0625 C173.453,89.70508 152.848,66.5117 119.547,66.5117 C86.197,66.5117 65.5918,89.70508 65.5918,106.0625 C65.5918,112.166 69.6934,114.9492 78.3359,114.9492 Z M76.8223,108.6504 C73.3555,108.6504 72.2324,107.8203 72.2324,105.4766 C72.2324,92.732422 89.518,72.8105 119.547,72.8105 C149.527,72.8105 166.812,92.732422 166.812,105.4766 C166.812,107.8203 165.689,108.6504 162.223,108.6504 L76.8223,108.6504 Z" id="Shape"></path>
                    </g>
                    <g id="Thin-L" transform="translate(296.486000, 841.000000)">
                        <path d="M118.961,56.1855 C133.17,56.1855 144.205,43.9785 144.205,28.1582 C144.205,13.1191 132.828,0.7656 118.961,0.7656 C104.996,0.7656 93.57,13.2168 93.717,28.207 C93.863,43.9785 104.703,56.1855 118.961,56.1855 Z M118.961,52.3281 C106.949,52.3281 97.623,41.8789 97.623,28.207 C97.477,15.3164 107.145,4.623 118.961,4.623 C130.68,4.623 140.25,15.2188 140.25,28.1582 C140.25,41.8789 130.924,52.3281 118.961,52.3281 Z M46.4023,57.5527 C58.8535,57.5527 68.4727,47.0059 68.4727,33.0898 C68.4727,19.9551 58.5117,9.1641 46.4023,9.1641 C34.2441,9.1641 24.2832,20.0527 24.4297,33.0898 C24.5762,47.0059 33.9512,57.5527 46.4023,57.5527 Z M191.471,57.5527 C203.922,57.5527 213.346,47.0059 213.492,33.0898 C213.639,20.0527 203.629,9.1641 191.471,9.1641 C179.41,9.1641 169.449,19.9551 169.449,33.0898 C169.449,47.0059 179.02,57.5527 191.471,57.5527 Z M46.4023,53.6953 C36.1484,53.6953 28.2871,44.8574 28.2871,33.0898 C28.2871,22.1523 36.3438,12.9727 46.4023,12.9727 C56.3633,12.9727 64.6152,22.1035 64.6152,33.0898 C64.6152,44.8574 56.6562,53.6953 46.4023,53.6953 Z M191.471,53.6953 C181.217,53.6953 173.258,44.8574 173.258,33.0898 C173.258,22.1035 181.51,12.9727 191.471,12.9727 C201.529,12.9727 209.635,22.1523 209.635,33.0898 C209.635,44.8574 201.725,53.6953 191.471,53.6953 Z M9.3418,113.0703 L65.25,113.0703 C63.9316,112.3867 62.5645,110.9707 61.9297,109.3105 L9.2441,109.3105 C5.3379,109.3105 3.9219,107.9434 3.9219,104.4766 C3.9219,85.62891 23.209,69.6621 46.2559,69.6621 C57.584,69.6621 67.7891,73.0312 75.4062,79.5254 C76.334,78.5977 77.3105,77.8164 78.2871,76.9375 C69.5957,69.7109 58.5117,65.8535 46.2559,65.8535 C18.1309,65.8535 0.0645,86.16602 0.0645,104.5742 C0.0645,110.3359 3.0918,113.0703 9.3418,113.0703 Z M228.58,113.0703 C234.781,113.0703 237.809,110.3359 237.809,104.5742 C237.809,86.16602 219.742,65.8535 191.617,65.8535 C179.41,65.8535 168.277,69.7109 159.586,76.9375 C160.611,77.8164 161.539,78.5977 162.467,79.5254 C170.084,73.0312 180.289,69.6621 191.617,69.6621 C214.664,69.6621 233.951,85.62891 233.951,104.4766 C233.951,107.9434 232.535,109.3105 228.678,109.3105 L175.943,109.3105 C175.309,110.9707 173.941,112.3867 172.623,113.0703 L228.58,113.0703 Z M76.334,113.0703 L161.246,113.0703 C168.473,113.0703 171.842,110.5801 171.842,105.0137 C171.842,88.75391 151.48,66.0977 118.814,66.0977 C86.148,66.0977 65.7383,88.75391 65.7383,105.0137 C65.7383,110.5801 69.1562,113.0703 76.334,113.0703 Z M76.041,109.2129 C71.1582,109.2129 69.6445,108.0898 69.6445,104.916 C69.6445,90.365234 87.955,69.9551 118.814,69.9551 C149.625,69.9551 167.936,90.365234 167.936,104.916 C167.936,108.0898 166.422,109.2129 161.539,109.2129 L76.041,109.2129 Z" id="Shape"></path>
                    </g>
                    <g id="Ultralight-L" transform="translate(0.116000, 842.000000)">
                        <path d="M118.619,55.2344 C132.682,55.2344 143.375,43.2715 143.375,27.5977 C143.375,12.7539 132.242,0.4492 118.619,0.4492 C104.85,0.4492 93.619,12.8027 93.814,27.5488 C93.961,43.2715 104.508,55.2344 118.619,55.2344 Z M118.619,52.6465 C105.973,52.6465 96.354,41.8555 96.354,27.5488 C96.158,14.2676 106.266,3.0859 118.619,3.0859 C130.826,3.0859 140.836,14.1699 140.836,27.5977 C140.836,41.8555 131.168,52.6465 118.619,52.6465 Z M46.0605,56.6016 C58.3652,56.6016 67.7891,46.25 67.7891,32.4805 C67.7891,19.541 57.9258,8.7988 46.0605,8.7988 C34.0977,8.7988 24.2832,19.5898 24.4297,32.4805 C24.625,46.25 33.7559,56.6016 46.0605,56.6016 Z M191.129,56.6016 C203.482,56.6016 212.564,46.25 212.76,32.4805 C212.906,19.5898 203.092,8.7988 191.129,8.7988 C179.264,8.7988 169.4,19.541 169.4,32.4805 C169.4,46.25 178.824,56.6016 191.129,56.6016 Z M46.0605,53.9648 C35.2695,53.9648 27.0664,44.7852 27.0664,32.4805 C27.0664,21.0547 35.5137,11.4355 46.0605,11.4355 C56.5098,11.4355 65.1523,21.0059 65.1523,32.4805 C65.1523,44.7852 56.8516,53.9648 46.0605,53.9648 Z M191.129,53.9648 C180.338,53.9648 172.037,44.7852 172.037,32.4805 C172.037,21.0059 180.68,11.4355 191.129,11.4355 C201.676,11.4355 210.123,21.0547 210.123,32.4805 C210.123,44.7852 201.92,53.9648 191.129,53.9648 Z M8.5117,111.582 L65.9336,111.582 C64.957,111.1426 63.7852,110.2637 62.9551,109.043 L8.7559,109.043 C4.3125,109.043 2.7012,107.5293 2.7012,103.5742 C2.7012,84.04297 22.3301,67.6855 45.8652,67.6855 C58.0234,67.6855 68.8633,71.3965 76.8223,78.5742 C77.5059,77.9883 78.1895,77.5 78.7754,76.9141 C69.9375,69.1992 58.5605,65.1465 45.8652,65.1465 C17.3984,65.1465 0.0645,85.70312 0.0645,103.5254 C0.0645,109.043 2.8477,111.582 8.5117,111.582 Z M228.678,111.582 C234.342,111.582 237.125,109.043 237.125,103.5254 C237.125,85.70312 219.791,65.1465 191.324,65.1465 C178.629,65.1465 167.252,69.1992 158.414,76.9141 C159,77.5 159.684,77.9883 160.367,78.5742 C168.326,71.3965 179.215,67.6855 191.324,67.6855 C214.859,67.6855 234.488,84.04297 234.488,103.5742 C234.488,107.5293 232.877,109.043 228.434,109.043 L174.234,109.043 C173.404,110.2637 172.232,111.1426 171.256,111.582 L228.678,111.582 Z M75.3086,111.582 L161.49,111.582 C167.984,111.582 171.061,109.2871 171.061,104.0137 C171.061,87.80273 150.748,65.4395 118.424,65.4395 C86.1,65.4395 65.7871,87.80273 65.7871,104.0137 C65.7871,109.2871 68.8633,111.582 75.3086,111.582 Z M75.6016,108.9941 C70.0352,108.9941 68.3262,107.7246 68.3262,104.1602 C68.3262,88.63281 87.174,68.0273 118.424,68.0273 C149.674,68.0273 168.473,88.63281 168.473,104.1602 C168.473,107.7246 166.812,108.9941 161.246,108.9941 L75.6016,108.9941 Z" id="Shape"></path>
                    </g>
                    <g id="Black-M" transform="translate(2394.850000, 420.000000)">
                        <path d="M97.521,48.6992 C110.266,48.6992 120.227,37.9082 120.227,24.2363 C120.227,11.1016 109.973,0.1152 97.521,0.1152 C85.0215,0.1152 74.7188,11.1016 74.8164,24.2363 C74.8652,37.9082 84.7773,48.6992 97.521,48.6992 Z M39.2695,49.7734 C50.4512,49.7734 59.2891,40.252 59.2891,28.1914 C59.2891,16.5703 50.1582,6.9023 39.2695,6.9023 C28.2832,6.9023 19.1523,16.6191 19.2010045,28.1914 C19.2988,40.3008 28.0879,49.7734 39.2695,49.7734 Z M155.822,49.7734 C167.004,49.7734 175.793,40.3008 175.891188,28.1914 C175.939,16.6191 166.809,6.9023 155.822,6.9023 C144.934,6.9023 135.803,16.5703 135.803,28.1914 C135.803,40.252 144.641,49.7734 155.822,49.7734 Z M97.521,34.8809 C92.639,34.8809 88.635,30.4375 88.635,24.1875 C88.537,18.5723 92.834,13.9336 97.521,13.9336 C102.258,13.9336 106.408,18.5723 106.408,24.2363 C106.408,30.3887 102.453,34.8809 97.521,34.8809 Z M39.2695,36.1992 C35.7539,36.1992 32.7754,32.8789 32.7754,28.1914 C32.7266,23.9922 35.8516,20.4766 39.2695,20.4766 C42.541,20.4766 45.7148,23.9922 45.7148,28.1914 C45.7148,32.8789 42.834,36.1992 39.2695,36.1992 Z M155.822,36.1992 C152.258,36.1992 149.377,32.8789 149.377,28.1914 C149.377,23.9922 152.502,20.4766 155.822,20.4766 C159.191,20.4766 162.365,23.9922 162.268,28.1914 C162.268,32.8789 159.338,36.1992 155.822,36.1992 Z M68.1758,95.1348 L126.867,95.1348 C136.73,95.1348 141.809,91.42383 141.809,83.85547 C141.809,67.5469 122.18,52.5566 97.521,52.5566 C72.8145,52.5566 53.2344,67.5469 53.2344,83.85547 C53.2344,91.42383 58.3125,95.1348 68.1758,95.1348 Z M13.7324,95.2324 L49.8652,95.2324 C45.666,92.498 43.8594,86.15039 44.2988,81.560547 L16.7598,81.560547 C16.125,81.560547 16.0273,81.121094 16.0273,80.82812 C16.0273,73.94336 25.9395,66.1797 39.2695,66.1797 C41.5645,66.1797 46.8379,67.0098 48.7422,67.498 C50.7441,63.1523 53.918,59.5391 58.8496,56.707 C53.2344,54.3633 44.7383,52.6543 39.2695,52.6543 C17.7363,52.6543 0.4512,67.0586 0.4512,83.17188 C0.4512,90.78906 4.8457,95.2324 13.7324,95.2324 Z M181.359,95.2324 C190.246,95.2324 194.641,90.78906 194.641,83.17188 C194.641,67.0586 177.355,52.6543 155.822,52.6543 C150.354,52.6543 141.809,54.3633 136.242,56.707 C141.125,59.5391 144.348,63.1523 146.35,67.498 C148.205,67.0098 153.527,66.1797 155.822,66.1797 C169.104,66.1797 179.064,73.94336 179.064,80.82812 C179.064,81.121094 178.967,81.560547 178.332,81.560547 L150.793,81.560547 C151.232,86.15039 149.426,92.498 145.227,95.2324 L181.359,95.2324 Z M70.3242,81.316406 C69.7383,81.316406 69.5918,80.87695 69.5918,80.48633 C69.5918,75.70117 80.1875,66.4238 97.521,66.4238 C114.855,66.4238 125.402,75.70117 125.402,80.48633 C125.402,80.87695 125.305,81.316406 124.67,81.316406 L70.3242,81.316406 Z" id="Shape"></path>
                    </g>
                    <g id="Heavy-M" transform="translate(2099.020000, 420.000000)">
                        <path d="M96.643,48.3086 C109.094,48.3086 118.957,37.6152 118.957,24.1875 C118.957,11.1992 108.947,0.457 96.643,0.457 C84.3379,0.457 74.2305,11.248 74.279124,24.2363 C74.377,37.6152 84.1426,48.3086 96.643,48.3086 Z M38.8301,49.3828 C49.7676,49.3828 58.459,39.959 58.459,28.0938 C58.459,16.668 49.5723,7.2441 38.8301,7.2441 C28.0879,7.2441 19.1523,16.7656 19.2010002,28.1426 C19.25,40.0078 27.9414,49.3828 38.8301,49.3828 Z M154.455,49.3828 C165.393,49.3828 174.035,40.0078 174.084202,28.1426 C174.133,16.7656 165.246,7.2441 154.455,7.2441 C143.713,7.2441 134.826,16.668 134.826,28.0938 C134.826,39.959 143.566,49.3828 154.455,49.3828 Z M96.643,36.0039 C91.223,36.0039 86.7305,30.9746 86.7305,24.1875 C86.6816,17.8887 91.32,12.7617 96.643,12.7617 C101.965,12.7617 106.555,17.8398 106.555,24.1875 C106.555,30.9258 102.111,36.0039 96.643,36.0039 Z M38.8301,37.2734 C34.7773,37.2734 31.3105,33.3672 31.3105,28.1426 C31.2617,23.3086 34.8262,19.3047 38.8301,19.3047 C42.834,19.3047 46.3984,23.3086 46.3984,28.0938 C46.3984,33.3672 42.9805,37.2734 38.8301,37.2734 Z M154.455,37.2734 C150.305,37.2734 146.936,33.3672 146.936,28.0938 C146.936,23.3086 150.5,19.3047 154.455,19.3047 C158.459,19.3047 162.072,23.3086 162.023,28.1426 C162.023,33.3672 158.557,37.2734 154.455,37.2734 Z M66.9551,94.5977 L126.281,94.5977 C135.754,94.5977 140.539,91.17969 140.539,84.14844 C140.539,68.6699 121.74,52.8496 96.643,52.8496 C71.4961,52.8496 52.7461,68.6699 52.7461,84.14844 C52.7461,91.17969 57.5312,94.5977 66.9551,94.5977 Z M12.9512,94.6465 L49.5723,94.6465 C45.8125,92.2539 44.0059,86.6875 44.4453,82.537109 L14.9531,82.537109 C14.2695,82.537109 14.0742,82.0976562 14.0742,81.609375 C14.0742,73.50391 24.9141,64.9102 38.8301,64.9102 C42.0527,64.9102 47.4238,65.8867 49.9629,66.9121 C51.8184,63.1523 54.6992,59.9785 58.9961,57.4395 C53.2344,54.7051 44.9336,52.8496 38.8301,52.8496 C17.541,52.8496 0.4512,67.3516 0.4512,83.51367 C0.4512,90.64258 4.6016,94.6465 12.9512,94.6465 Z M180.383,94.6465 C188.732,94.6465 192.883,90.64258 192.883,83.51367 C192.883,67.3516 175.744,52.8496 154.455,52.8496 C148.4,52.8496 140.1,54.7051 134.338,57.4395 C138.586,59.9785 141.467,63.1523 143.371,66.9121 C145.91,65.8867 151.281,64.9102 154.455,64.9102 C168.42,64.9102 179.26,73.50391 179.26,81.609375 C179.26,82.0976562 179.064,82.537109 178.332,82.537109 L148.889,82.537109 C149.279,86.6875 147.521,92.2539 143.713,94.6465 L180.383,94.6465 Z M68.0781,82.292969 C67.2969,82.292969 67.1016,81.853516 67.1016,81.365234 C67.1016,75.75 78.0879,65.1543 96.643,65.1543 C115.148,65.1543 126.135,75.75 126.135,81.365234 C126.135,81.853516 125.939,82.292969 125.158,82.292969 L68.0781,82.292969 Z" id="Shape"></path>
                    </g>
                    <g id="Bold-M" transform="translate(1803.310000, 420.000000)">
                        <path d="M95.666,47.8203 C107.824,47.8203 117.541,37.2734 117.541,24.1387 C117.541,11.2969 107.727,0.8965 95.666,0.8965 C83.6055,0.8965 73.6934,11.3945 73.7420206,24.1875 C73.791,37.2734 83.5078,47.8203 95.666,47.8203 Z M38.3906,48.8945 C49.0352,48.8945 57.5801,39.6172 57.5801,28.0449 C57.5801,16.8145 48.9375,7.5859 38.3906,7.5859 C27.8926,7.5859 19.2012,16.9121 19.2012,28.0938 C19.25,39.666 27.7949,48.8945 38.3906,48.8945 Z M152.941,48.8945 C163.537,48.8945 172.082,39.666 172.131205,28.0938 C172.18,16.9121 163.439,7.5859 152.941,7.5859 C142.395,7.5859 133.752,16.8145 133.752,28.0449 C133.752,39.6172 142.297,48.8945 152.941,48.8945 Z M95.666,37.2246 C89.66,37.2246 84.582,31.6094 84.582,24.1387 C84.5332,17.0586 89.709,11.4922 95.666,11.4922 C101.672,11.4922 106.701,17.0098 106.701,24.1387 C106.701,31.5117 101.721,37.2246 95.666,37.2246 Z M38.3906,38.4941 C33.6543,38.4941 29.6504,33.9531 29.6504,28.0938 C29.6016,22.5762 33.7031,18.0352 38.3906,18.0352 C43.127,18.0352 47.1797,22.5273 47.1797,28.0449 C47.1797,33.9531 43.1758,38.4941 38.3906,38.4941 Z M152.941,38.4941 C148.156,38.4941 144.201,33.9531 144.201,28.0449 C144.201,22.5273 148.205,18.0352 152.941,18.0352 C157.629,18.0352 161.73,22.5762 161.682,28.0938 C161.682,33.9531 157.678,38.4941 152.941,38.4941 Z M12.0723,94.0117 L49.2793,94.0117 C46.0078,92.0098 44.2012,87.37109 44.5918,83.5625 L12.9512,83.5625 C12.1699,83.5625 11.877,83.17188 11.877,82.537109 C11.877,73.01562 23.7422,63.4941 38.3906,63.4941 C42.5898,63.4941 48.0098,64.666 51.3301,66.2773 C53.0879,63.1035 55.5781,60.4668 59.1426,58.2695 C53.1855,55.0469 45.1777,53.1426 38.3906,53.1426 C17.3945,53.1426 0.4512,67.7422 0.4512,83.9043 C0.4512,90.44727 4.3086,94.0117 12.0723,94.0117 Z M179.309,94.0117 C187.023,94.0117 190.881,90.44727 190.881,83.9043 C190.881,67.7422 173.986,53.1426 152.941,53.1426 C146.203,53.1426 138.146,55.0469 132.189,58.2695 C135.754,60.4668 138.244,63.1035 140.051,66.2773 C143.322,64.666 148.742,63.4941 152.941,63.4941 C167.59,63.4941 179.455,73.01562 179.455,82.537109 C179.455,83.17188 179.211,83.5625 178.381,83.5625 L146.74,83.5625 C147.131,87.37109 145.324,92.0098 142.053,94.0117 L179.309,94.0117 Z M65.6367,93.9629 L125.646,93.9629 C134.631,93.9629 139.123,90.88672 139.123,84.44141 C139.123,69.8906 121.252,53.1426 95.666,53.1426 C70.0312,53.1426 52.1602,69.8906 52.1602,84.44141 C52.1602,90.88672 56.6523,93.9629 65.6367,93.9629 Z M65.5391,83.36719 C64.6113,83.36719 64.3184,82.976562 64.3184,82.292969 C64.3184,75.84766 75.793,63.7383 95.666,63.7383 C115.49,63.7383 127.014,75.84766 127.014,82.292969 C127.014,82.976562 126.672,83.36719 125.744,83.36719 L65.5391,83.36719 Z" id="Shape"></path>
                    </g>
                    <g id="Semibold-M" transform="translate(1507.280000, 421.000000)">
                        <path d="M94.982,46.4785 C106.945,46.4785 116.613,36.0293 116.613,23.0898 C116.613,10.3945 106.896,0.1895 94.982,0.1895 C83.1172,0.1895 73.3516,10.4922 73.4002179,23.1387 C73.4002179,36.0293 83.0195,46.4785 94.982,46.4785 Z M38.0977,47.6016 C48.498,47.6016 56.9453,38.373 56.9453,26.9961 C56.9453,15.9121 48.498,6.8789 38.0977,6.8789 C27.7461,6.8789 19.2012,16.0098 19.249792,27.0449 C19.249792,38.4219 27.6973,47.6016 38.0977,47.6016 Z M151.916,47.6016 C162.316,47.6016 170.715,38.4219 170.7642,27.0449 C170.812,16.0098 162.219,6.8789 151.916,6.8789 C141.516,6.8789 133.02,15.9121 133.02,26.9961 C133.02,38.373 141.467,47.6016 151.916,47.6016 Z M94.982,37.0547 C88.537,37.0547 83.1172,31 83.1172,23.1387 C83.1172,15.5215 88.537,9.6133 94.982,9.6133 C101.477,9.6133 106.848,15.4727 106.848,23.0898 C106.848,30.9023 101.477,37.0547 94.982,37.0547 Z M38.0977,38.3242 C32.9219,38.3242 28.5273,33.3438 28.5273,27.0449 C28.4785,21.0391 32.9219,16.1562 38.0977,16.1562 C43.3223,16.1562 47.7168,20.9414 47.7168,26.9961 C47.7168,33.3438 43.3223,38.3242 38.0977,38.3242 Z M151.916,38.3242 C146.643,38.3242 142.297,33.3438 142.297,26.9961 C142.297,20.9414 146.643,16.1562 151.916,16.1562 C157.092,16.1562 161.486,21.0391 161.486,27.0449 C161.486,33.3438 157.092,38.3242 151.916,38.3242 Z M11.4375,92.5723 L49.084,92.5723 C46.1543,90.81445 44.3477,86.81055 44.6895,83.29492 L11.584,83.29492 C10.7051,83.29492 10.3633,82.9043 10.3633,82.12305 C10.3633,71.67383 22.9609,61.5176 38.0488,61.5176 C42.9805,61.5176 48.4492,62.7871 52.2578,64.8379 C53.9668,62.1035 56.1641,59.8086 59.2402,57.8555 C53.1855,54.291 45.3242,52.2891 38.0488,52.2891 C17.248,52.2891 0.4512,66.9863 0.4512,83.19727 C0.4512,89.34961 4.1133,92.5723 11.4375,92.5723 Z M178.527,92.5723 C185.9,92.5723 189.514,89.34961 189.514,83.19727 C189.514,66.9863 172.717,52.2891 151.916,52.2891 C144.689,52.2891 136.828,54.291 130.725,57.8555 C133.801,59.8086 136.047,62.1035 137.756,64.8379 C141.564,62.7871 147.033,61.5176 151.916,61.5176 C167.053,61.5176 179.65,71.67383 179.65,82.12305 C179.65,82.9043 179.26,83.29492 178.381,83.29492 L145.275,83.29492 C145.617,86.81055 143.859,90.81445 140.93,92.5723 L178.527,92.5723 Z M64.709,92.5234 L125.207,92.5234 C133.898,92.5234 138.146,89.69141 138.146,83.63672 C138.146,69.7207 120.91,52.3379 94.982,52.3379 C69.0547,52.3379 51.8184,69.7207 51.8184,83.63672 C51.8184,89.69141 56.0176,92.5234 64.709,92.5234 Z M63.8301,83.09961 C62.7559,83.09961 62.3652,82.75781 62.3652,81.927734 C62.3652,74.89648 74.1816,61.7617 94.982,61.7617 C115.734,61.7617 127.551,74.89648 127.551,81.927734 C127.551,82.75781 127.16,83.09961 126.135,83.09961 L63.8301,83.09961 Z" id="Shape"></path>
                    </g>
                    <g id="Medium-M" transform="translate(1211.090000, 421.000000)">
                        <path d="M94.494,46.2344 C106.262,46.2344 115.881,35.834 115.881,23.041 C115.881,10.4434 106.311,0.3848 94.494,0.3848 C82.7266,0.3848 73.0586,10.5898 73.1072161,23.1387 C73.1072161,35.8828 82.6777,46.2344 94.494,46.2344 Z M37.8535,47.3574 C48.1562,47.3574 56.457,38.2266 56.457,26.9473 C56.457,15.9609 48.1562,7.0742 37.8535,7.0742 C27.6484,7.0742 19.2012,16.1074 19.2497896,26.9961 C19.2497896,38.2754 27.5996,47.3574 37.8535,47.3574 Z M151.086,47.3574 C161.34,47.3574 169.689,38.2754 169.738,26.9961 C169.738,16.1074 161.291,7.0742 151.086,7.0742 C140.832,7.0742 132.482,15.9609 132.482,26.9473 C132.482,38.2266 140.832,47.3574 151.086,47.3574 Z M94.494,37.6895 C87.7559,37.6895 82.043,31.3418 82.043,23.0898 C81.9941,15.1309 87.707,8.9297 94.494,8.9297 C101.281,8.9297 106.945,15.0332 106.945,23.041 C106.945,31.2441 101.281,37.6895 94.494,37.6895 Z M37.8535,38.9102 C32.3359,38.9102 27.6484,33.6367 27.6484,26.9961 C27.6484,20.6484 32.2871,15.4727 37.8535,15.4727 C43.5176,15.4727 48.1074,20.5508 48.1074,26.9473 C48.1074,33.6367 43.4199,38.9102 37.8535,38.9102 Z M151.086,38.9102 C145.52,38.9102 140.832,33.6367 140.832,26.9473 C140.832,20.5508 145.471,15.4727 151.086,15.4727 C156.652,15.4727 161.34,20.6484 161.34,26.9961 C161.34,33.6367 156.652,38.9102 151.086,38.9102 Z M10.998,92.2305 L48.9375,92.2305 C46.252,90.66797 44.4453,87.10352 44.7871,83.88086 L10.5586,83.88086 C9.6309,83.88086 9.2402,83.44141 9.2402,82.61133 C9.2402,71.42969 22.3262,60.7852 37.8047,60.7852 C43.2734,60.7852 48.7422,62.1523 52.9414,64.4961 C54.6016,62.1035 56.6523,60.0527 59.3379,58.2949 C53.1367,54.4863 45.4219,52.4355 37.8047,52.4355 C17.1504,52.4355 0.4512,67.1816 0.4512,83.39258 C0.4512,89.25195 3.9668,92.2305 10.998,92.2305 Z M177.99,92.2305 C185.021,92.2305 188.488,89.25195 188.488,83.39258 C188.488,67.1816 171.789,52.4355 151.135,52.4355 C143.518,52.4355 135.803,54.4863 129.65,58.2949 C132.336,60.0527 134.387,62.1035 135.998,64.4961 C140.197,62.1523 145.715,60.7852 151.135,60.7852 C166.613,60.7852 179.748,71.42969 179.748,82.61133 C179.748,83.44141 179.357,83.88086 178.43,83.88086 L144.152,83.88086 C144.494,87.10352 142.736,90.66797 140.051,92.2305 L177.99,92.2305 Z M64.0254,92.2305 L124.865,92.2305 C133.312,92.2305 137.414,89.54492 137.414,83.7832 C137.414,70.3555 120.617,52.4844 94.445,52.4844 C68.2734,52.4844 51.5254,70.3555 51.5254,83.7832 C51.5254,89.54492 55.5781,92.2305 64.0254,92.2305 Z M62.5117,83.68555 C61.3398,83.68555 60.9004,83.29492 60.9004,82.41602 C60.9004,74.94531 72.9609,61.0293 94.445,61.0293 C115.93,61.0293 127.99,74.94531 127.99,82.41602 C127.99,83.29492 127.551,83.68555 126.428,83.68555 L62.5117,83.68555 Z" id="Shape"></path>
                    </g>
                    <g id="Regular-M" transform="translate(915.030000, 421.000000)">
                        <path d="M93.811,45.9414 C105.432,45.9414 114.904,35.5898 114.904,22.9922 C114.904,10.541 105.48,0.6777 93.811,0.6777 C82.1895,0.6777 72.668,10.6875 72.7166132,23.0898 C72.7656,35.6387 82.1895,45.9414 93.811,45.9414 Z M37.5605,47.0156 C47.6191,47.0156 55.8711,37.9824 55.8711,26.8984 C55.8711,16.0586 47.7168,7.3184 37.5605,7.3184 C27.502,7.3184 19.2012,16.2051 19.2497859,26.9961 C19.2497859,38.0312 27.502,47.0156 37.5605,47.0156 Z M150.061,47.0156 C160.119,47.0156 168.371216,38.0312 168.371216,26.9961 C168.42,16.2051 160.119,7.3184 150.061,7.3184 C139.904,7.3184 131.75,16.0586 131.75,26.8984 C131.75,37.9824 140.002,47.0156 150.061,47.0156 Z M93.811,38.5684 C86.6816,38.5684 80.5781,31.7324 80.5781,23.0898 C80.5293,14.5938 86.5352,8.0508 93.811,8.0508 C101.086,8.0508 107.043,14.4961 107.043,22.9922 C107.043,31.6348 100.988,38.5684 93.811,38.5684 Z M37.5605,39.7402 C31.5547,39.7402 26.5254,34.0273 26.5254,26.9961 C26.5254,20.1113 31.5059,14.5938 37.5605,14.5938 C43.7129,14.5938 48.6445,20.0137 48.6445,26.8984 C48.6445,34.0273 43.5664,39.7402 37.5605,39.7402 Z M150.061,39.7402 C144.055,39.7402 138.977,34.0273 138.977,26.8984 C138.977,20.0137 143.908,14.5938 150.061,14.5938 C156.115,14.5938 161.096,20.1113 161.096,26.9961 C161.096,34.0273 156.018,39.7402 150.061,39.7402 Z M10.3633,91.791 L48.6934,91.791 C46.3496,90.47266 44.5918,87.54297 44.9336,84.56445 L9.1914,84.56445 C8.166,84.56445 7.7266,84.17383 7.7266,83.24609 C7.7266,71.13672 21.5449,59.8086 37.5117,59.8086 C43.6152,59.8086 49.1816,61.2734 53.918,64.0566 C55.4316,62.1035 57.2383,60.3945 59.4355,58.8809 C53.1367,54.7305 45.5684,52.582 37.5117,52.582 C17.0527,52.582 0.4512,67.4258 0.4512,83.68555 C0.4512,89.10547 3.7715,91.791 10.3633,91.791 Z M177.258,91.791 C183.85,91.791 187.17,89.10547 187.17,83.68555 C187.17,67.4258 170.568,52.582 150.109,52.582 C142.053,52.582 134.484,54.7305 128.186,58.8809 C130.383,60.3945 132.189,62.1035 133.703,64.0566 C138.439,61.2734 143.957,59.8086 150.109,59.8086 C166.076,59.8086 179.895,71.13672 179.895,83.24609 C179.895,84.17383 179.455,84.56445 178.43,84.56445 L142.688,84.56445 C143.029,87.54297 141.223,90.47266 138.928,91.791 L177.258,91.791 Z M63.0977,91.791 L124.426,91.791 C132.58,91.791 136.438,89.34961 136.438,83.97852 C136.438,71.18555 120.275,52.6797 93.762,52.6797 C67.2969,52.6797 51.1348,71.18555 51.1348,83.97852 C51.1348,89.34961 54.9922,91.791 63.0977,91.791 Z M60.7539,84.41797 C59.4844,84.41797 58.9961,84.07617 58.9961,83.05078 C58.9961,75.04297 71.3984,60.0527 93.762,60.0527 C116.174,60.0527 128.576,75.04297 128.576,83.05078 C128.576,84.07617 128.039,84.41797 126.77,84.41797 L60.7539,84.41797 Z" id="Shape"></path>
                    </g>
                    <g id="Light-M" transform="translate(618.790000, 422.000000)">
                        <path d="M93.322,44.9902 C104.748,44.9902 113.879,34.9805 113.879,22.5293 C113.879,10.3223 104.699,0.6055 93.322,0.6055 C82.043,0.6055 72.7656,10.4688 72.8143076,22.5781 C72.9121,35.0293 81.9453,44.9902 93.322,44.9902 Z M93.322,39.2773 C85.4121,39.2773 78.8688288,31.9531 78.8688288,22.5781 C78.8203,13.4961 85.3633,6.3184 93.322,6.3184 C101.33,6.3184 107.824,13.4473 107.824,22.5293 C107.824,31.9043 101.33,39.2773 93.322,39.2773 Z M37.0723,46.0645 C47.0332,46.0645 54.9434,37.373 54.9434,26.3867 C54.9434,15.791 46.9844,7.1973 37.0723,7.1973 C27.3066,7.1973 19.2012,15.9375 19.2497808,26.4355 C19.3477,37.373 27.209,46.0645 37.0723,46.0645 Z M149.572,46.0645 C159.484,46.0645 167.346,37.373 167.395,26.4355 C167.492,15.9375 159.387,7.1973 149.572,7.1973 C139.709,7.1973 131.75,15.791 131.75,26.3867 C131.75,37.373 139.66,46.0645 149.572,46.0645 Z M37.0723,40.4004 C30.3828,40.4004 24.9141,34.2969 24.9141,26.4355 C24.9141,18.9648 30.3828,12.8613 37.0723,12.8613 C43.8594,12.8613 49.3281,18.8672 49.3281,26.3867 C49.3281,34.2969 43.8594,40.4004 37.0723,40.4004 Z M149.572,40.4004 C142.834,40.4004 137.365,34.2969 137.365,26.3867 C137.365,18.8672 142.834,12.8613 149.572,12.8613 C156.262,12.8613 161.779,18.9648 161.779,26.4355 C161.779,34.2969 156.311,40.4004 149.572,40.4004 Z M9.3379,90.2051 L49.5723,90.2051 C47.7168,89.17969 46.2031,86.93359 46.252,84.58984 L8.5566,84.58984 C6.7988,84.58984 6.1152,83.95508 6.1152,82.34375 C6.1152,69.3066 20.3242,57.5879 37.0234,57.5879 C44.1523,57.5879 50.5977,59.4922 55.7734,63.1055 C56.9941,61.6406 58.4102,60.3223 60.0703,59.1016 C53.5762,54.4141 45.6172,51.9727 37.0234,51.9727 C16.0762,51.9727 0.4512,67.1582 0.4512,82.63672 C0.4512,87.71484 3.3809,90.2051 9.3379,90.2051 Z M177.355,90.2051 C183.264,90.2051 186.242,87.71484 186.242,82.63672 C186.242,67.1582 170.617,51.9727 149.67,51.9727 C141.076,51.9727 133.117,54.4141 126.623,59.1016 C128.283,60.3223 129.699,61.6406 130.92,63.1055 C136.096,59.4922 142.541,57.5879 149.67,57.5879 C166.32,57.5879 180.578,69.3066 180.578,82.34375 C180.578,83.95508 179.895,84.58984 178.137,84.58984 L140.441,84.58984 C140.49,86.93359 138.977,89.17969 137.121,90.2051 L177.355,90.2051 Z M61.7793,90.2051 L124.816,90.2051 C131.945,90.2051 135.363,87.91016 135.363,82.97852 C135.363,70.23438 119.348,52.1191 93.273,52.1191 C67.248,52.1191 51.2324,70.23438 51.2324,82.97852 C51.2324,87.91016 54.6016,90.2051 61.7793,90.2051 Z M60.2168,84.44336 C58.0195,84.44336 57.2383,83.90625 57.2383,82.34375 C57.2383,73.11523 70.3242,57.832 93.273,57.832 C116.223,57.832 129.309,73.11523 129.309,82.34375 C129.309,83.90625 128.576,84.44336 126.33,84.44336 L60.2168,84.44336 Z" id="Shape"></path>
                    </g>
                    <g id="Thin-M" transform="translate(322.686000, 423.000000)">
                        <path d="M92.736,44.0879 C103.82,44.0879 112.463,34.5176 112.463,22.2129 C112.463,10.4453 103.625,0.8262 92.736,0.8262 C81.8477,0.8262 72.8633,10.543 73.0098,22.2617 C73.1074,34.5176 81.6035,44.0879 92.736,44.0879 Z M92.736,40.5234 C83.7031,40.5234 76.623,32.6133 76.623,22.2617 C76.5254,12.4473 83.8496,4.3906 92.736,4.3906 C101.574,4.3906 108.85,12.3496 108.85,22.2129 C108.85,32.6133 101.77,40.5234 92.736,40.5234 Z M36.4863,45.1621 C46.2031,45.1621 53.7227,36.8613 53.7227,26.0215 C53.7227,15.7676 45.959,7.3691 36.4863,7.3691 C27.0137,7.3691 19.2012,15.8652 19.2988,26.0703 C19.3965,36.8613 26.8184,45.1621 36.4863,45.1621 Z M148.938,45.1621 C158.654,45.1621 166.027,36.8613 166.125,26.0703 C166.271,15.8652 158.459,7.3691 148.938,7.3691 C139.465,7.3691 131.701,15.7676 131.701,26.0215 C131.701,36.8613 139.27,45.1621 148.938,45.1621 Z M36.4863,41.6465 C28.8203,41.6465 22.8145,34.9082 22.8145,26.0703 C22.8145,17.7695 28.918,10.8359 36.4863,10.8359 C44.0547,10.8359 50.2559,17.7207 50.2559,26.0215 C50.2559,34.9082 44.2012,41.6465 36.4863,41.6465 Z M148.938,41.6465 C141.223,41.6465 135.217,34.9082 135.217,26.0215 C135.217,17.7207 141.418,10.8359 148.938,10.8359 C156.506,10.8359 162.658,17.7695 162.658,26.0703 C162.658,34.9082 156.652,41.6465 148.938,41.6465 Z M7.9707,88.375 L50.6953,88.375 C49.5234,87.74023 48.3516,86.42188 48.0098,84.9082 L7.7266,84.9082 C4.9922,84.9082 3.9668,83.98047 3.9668,81.49023 C3.9668,67.1836 18.7617,54.9277 36.3887,54.9277 C44.8848,54.9277 52.502,57.418 58.2637,62.1543 C59.0449,61.3242 59.9238,60.543 60.9004,59.7617 C54.2109,54.3418 45.7148,51.4609 36.3887,51.4609 C14.7578,51.4609 0.4512,67.0859 0.4512,81.58789 C0.4512,86.17773 2.9414,88.375 7.9707,88.375 Z M177.502,88.375 C182.531,88.375 185.021,86.17773 185.021,81.58789 C185.021,67.0859 170.666,51.4609 149.084,51.4609 C139.758,51.4609 131.262,54.3418 124.572,59.7617 C125.549,60.543 126.379,61.3242 127.209,62.1543 C132.971,57.418 140.588,54.9277 149.084,54.9277 C166.711,54.9277 181.506,67.1836 181.506,81.49023 C181.506,83.98047 180.48,84.9082 177.697,84.9082 L137.463,84.9082 C137.072,86.42188 135.949,87.74023 134.729,88.375 L177.502,88.375 Z M59.9727,88.375 L125.256,88.375 C131.164,88.375 133.947,86.37305 133.947,81.97852 C133.947,69.33203 118.078,51.6562 92.639,51.6562 C67.1504,51.6562 51.3301,69.33203 51.3301,81.97852 C51.3301,86.37305 54.1133,88.375 59.9727,88.375 Z M59.4844,84.85938 C56.0176,84.85938 54.9434,84.0293 54.9434,81.73438 C54.9434,70.8457 68.9082,55.1719 92.639,55.1719 C116.32,55.1719 130.285,70.8457 130.285,81.73438 C130.285,84.0293 129.211,84.85938 125.744,84.85938 L59.4844,84.85938 Z" id="Shape"></path>
                    </g>
                    <g id="Ultralight-M" transform="translate(26.292000, 424.000000)">
                        <path d="M92.395,43.1367 C103.381,43.1367 111.779,33.8105 111.779,21.5547 C111.779,9.9824 103.039,0.4609 92.395,0.4609 C81.7012,0.4609 72.9609,10.0801 73.0586,21.5547 C73.2051,33.7617 81.457,43.1367 92.395,43.1367 Z M92.395,40.6953 C82.8242,40.6953 75.4512,32.4434 75.4512,21.5547 C75.3535,11.3984 83.0195,2.8535 92.395,2.8535 C101.721,2.8535 109.387,11.3496 109.387,21.5547 C109.387,32.4434 102.014,40.6953 92.395,40.6953 Z M36.1934,44.1621 C45.8125,44.1621 53.1367,36.1055 53.1367,25.3633 C53.1367,15.3047 45.4707,6.9551 36.1934,6.9551 C26.8672,6.9551 19.2012,15.3535 19.3477,25.3633 C19.4453,36.1055 26.623,44.1621 36.1934,44.1621 Z M148.645,44.1621 C158.215,44.1621 165.393,36.1055 165.49,25.3633 C165.637,15.3535 157.971,6.9551 148.645,6.9551 C139.367,6.9551 131.701,15.3047 131.701,25.3633 C131.701,36.1055 139.025,44.1621 148.645,44.1621 Z M36.1934,41.7695 C27.9902,41.7695 21.7402,34.7871 21.7402,25.3633 C21.7402,16.6719 28.1855,9.3477 36.1934,9.3477 C44.1523,9.3477 50.7441,16.623 50.7441,25.3633 C50.7441,34.7871 44.3965,41.7695 36.1934,41.7695 Z M148.645,41.7695 C140.441,41.7695 134.094,34.7871 134.094,25.3633 C134.094,16.623 140.686,9.3477 148.645,9.3477 C156.652,9.3477 163.098,16.6719 163.098,25.3633 C163.098,34.7871 156.848,41.7695 148.645,41.7695 Z M7.2383,86.93555 L51.2812,86.93555 C50.4512,86.54492 49.4746,85.71484 48.8887,84.5918 L7.3359,84.5918 C4.0645,84.5918 2.8438,83.46875 2.8438,80.58789 C2.8438,65.6465 17.9805,53.0977 36.0957,53.0977 C45.2266,53.0977 53.4297,55.832 59.5332,61.2031 C60.1191,60.666 60.7051,60.1777 61.291,59.6406 C54.5039,53.8301 45.7637,50.7539 36.0957,50.7539 C14.123,50.7539 0.4512,66.5742 0.4512,80.58789 C0.4512,84.93359 2.6973,86.93555 7.2383,86.93555 Z M177.6,86.93555 C182.141,86.93555 184.387,84.93359 184.387,80.58789 C184.387,66.5742 170.715,50.7539 148.742,50.7539 C139.074,50.7539 130.334,53.8301 123.498,59.6406 C124.133,60.1777 124.719,60.666 125.305,61.2031 C131.408,55.832 139.611,53.0977 148.742,53.0977 C166.857,53.0977 181.994,65.6465 181.994,80.58789 C181.994,83.46875 180.773,84.5918 177.502,84.5918 L135.949,84.5918 C135.363,85.71484 134.387,86.54492 133.557,86.93555 L177.6,86.93555 Z M59.0938,86.93555 L125.5,86.93555 C130.725,86.93555 133.215,85.08008 133.215,80.92969 C133.215,68.38086 117.443,50.9492 92.297,50.9492 C67.1504,50.9492 51.3789,68.38086 51.3789,80.92969 C51.3789,85.08008 53.8203,86.93555 59.0938,86.93555 Z M59.1426,84.54297 C55.041,84.54297 53.7715,83.61523 53.7715,80.97852 C53.7715,69.25977 68.2246,53.3418 92.297,53.3418 C116.369,53.3418 130.822,69.25977 130.822,80.97852 C130.822,83.61523 129.553,84.54297 125.451,84.54297 L59.1426,84.54297 Z" id="Shape"></path>
                    </g>
                    <g id="Black-S" transform="translate(2415.630000, 0.000000)">
                        <path d="M76.7422,38.2598 C86.7031,38.2598 94.516,29.8125 94.516,19.1191 C94.516,8.8164 86.5078,0.2227 76.7422,0.2227 C66.9766,0.2227 58.9199,8.8164 58.9685786,19.1191 C59.0176,29.8125 66.7812,38.2598 76.7422,38.2598 Z M31.1367,39.0898 C39.877,39.0898 46.8105,31.6191 46.8105,22.1953 C46.8105,13.1133 39.6816,5.5449 31.1367,5.5449 C22.543,5.5449 15.4141,13.1621 15.4626509,22.1953 C15.5117,31.668 22.3965,39.0898 31.1367,39.0898 Z M122.396,39.0898 C131.137,39.0898 138.021,31.668 138.070251,22.1953 C138.119,13.1621 130.99,5.5449 122.396,5.5449 C113.852,5.5449 106.723,13.1133 106.723,22.1953 C106.723,31.6191 113.656,39.0898 122.396,39.0898 Z M76.7422,27.5176 C72.8848,27.5176 69.7109,24.002 69.7109,19.0703 C69.6621,14.627 73.0312,10.9648 76.7422,10.9648 C80.502,10.9648 83.7734,14.627 83.7734,19.1191 C83.7734,23.9531 80.6484,27.5176 76.7422,27.5176 Z M31.1367,28.543 C28.3535,28.543 26.0098,25.9062 26.0098,22.1953 C25.9609,18.875 28.4512,16.0918 31.1367,16.0918 C33.7734,16.0918 36.2637,18.875 36.2637,22.1953 C36.2637,25.9062 33.9688,28.543 31.1367,28.543 Z M122.396,28.543 C119.564,28.543 117.27,25.9062 117.27,22.1953 C117.27,18.875 119.76,16.0918 122.396,16.0918 C125.082,16.0918 127.572,18.875 127.523,22.1953 C127.523,25.9062 125.18,28.543 122.396,28.543 Z M53.7441,74.63672 L99.74,74.63672 C107.455,74.63672 111.41,71.755859 111.41,65.84766 C111.41,53.1523 96.127,41.3359 76.7422,41.3359 C57.3574,41.3359 42.0742,53.1523 42.0742,65.84766 C42.0742,71.755859 46.0293,74.63672 53.7441,74.63672 Z M11.1172,74.68555 L39.4375,74.68555 C36.166,72.585938 34.75,67.6543 35.0918,64.08984 L13.4121,64.08984 C12.9238,64.08984 12.8262,63.74805 12.8262,63.50391 C12.8262,58.0352 20.6875,51.8828 31.1367,51.8828 C32.9922,51.8828 37.1426,52.5664 38.6562,52.957 C40.2188,49.5879 42.709,46.8047 46.5176,44.6074 C42.123,42.752 35.4824,41.3848 31.1367,41.3848 C14.291,41.3848 0.76562,52.6641 0.76562,65.31055 C0.76562,71.267578 4.1836,74.68555 11.1172,74.68555 Z M142.416,74.68555 C149.35,74.68555 152.768,71.267578 152.768,65.31055 C152.768,52.6641 139.242,41.3848 122.396,41.3848 C118.051,41.3848 111.41,42.752 107.016,44.6074 C110.824,46.8047 113.314,49.5879 114.877,52.957 C116.391,52.5664 120.541,51.8828 122.396,51.8828 C132.846,51.8828 140.707,58.0352 140.707,63.50391 C140.707,63.74805 140.609,64.08984 140.121,64.08984 L118.441,64.08984 C118.783,67.6543 117.367,72.585938 114.096,74.68555 L142.416,74.68555 Z M55.3555,63.89453 C54.8672,63.89453 54.7695,63.55273 54.7695,63.25977 C54.7695,59.4512 63.0703,52.0781 76.7422,52.0781 C90.4141,52.0781 98.715,59.4512 98.715,63.25977 C98.715,63.55273 98.617,63.89453 98.129,63.89453 L55.3555,63.89453 Z" id="Shape"></path>
                    </g>
                    <g id="Heavy-S" transform="translate(2119.530000, 0.000000)">
                        <path d="M76.1074,37.918 C85.9219,37.918 93.686,29.5195 93.686,19.0215 C93.686,8.8164 85.7754,0.418 76.1074,0.418 C66.4883,0.418 58.5293,8.8164 58.5778768,19.0215 C58.627,29.5195 66.3418,37.918 76.1074,37.918 Z M30.8926,38.748 C39.4375,38.748 46.2734,31.375 46.2734,22.0977 C46.2734,13.1133 39.3398,5.6914 30.8926,5.6914 C22.4453,5.6914 15.4141,13.2109 15.4626475,22.0977 C15.5117,31.4238 22.3477,38.748 30.8926,38.748 Z M121.42,38.748 C129.965,38.748 136.801256,31.4238 136.801256,22.0977 C136.85,13.2109 129.867,5.6914 121.42,5.6914 C112.973,5.6914 105.99,13.1133 105.99,22.0977 C105.99,31.375 112.826,38.748 121.42,38.748 Z M76.1074,28.1523 C71.957,28.1523 68.4414,24.2949 68.4414,18.9727 C68.3926,14.0898 72.0547,10.1836 76.1074,10.1836 C80.2578,10.1836 83.8223,14.0898 83.8223,19.0215 C83.8223,24.1973 80.3555,28.1523 76.1074,28.1523 Z M30.8926,29.1777 C27.7188,29.1777 25.0332,26.1504 25.0332,22.0977 C25.0332,18.3867 27.7676,15.3105 30.8926,15.3105 C33.9688,15.3105 36.7031,18.3379 36.7031,22.0977 C36.7031,26.1504 34.0664,29.1777 30.8926,29.1777 Z M121.42,29.1777 C118.197,29.1777 115.561,26.1504 115.561,22.0977 C115.561,18.3379 118.344,15.3105 121.42,15.3105 C124.496,15.3105 127.279,18.3867 127.23,22.0977 C127.23,26.1504 124.545,29.1777 121.42,29.1777 Z M52.9629,74.29492 L99.252,74.29492 C106.771,74.29492 110.58,71.609375 110.58,66.04297 C110.58,53.9824 95.883,41.4824 76.1074,41.4824 C56.3809,41.4824 41.6836,53.9824 41.6836,66.04297 C41.6836,71.609375 45.4922,74.29492 52.9629,74.29492 Z M10.6289,74.29492 L39.1445,74.29492 C36.166,72.439453 34.7012,68.04492 35.043,64.72461 L12.0938,64.72461 C11.6543,64.72461 11.5078,64.38281 11.5078,64.08984 C11.5078,57.791 20.0039,51.0527 30.8926,51.0527 C33.334,51.0527 37.3867,51.7852 39.3887,52.5176 C40.9023,49.5391 43.1973,47.0488 46.5664,45.0469 C42.0254,42.8984 35.6289,41.5312 30.8926,41.5312 C14.291,41.5312 0.76562,52.8594 0.76562,65.60352 C0.76562,71.169922 4.0371,74.29492 10.6289,74.29492 Z M141.684,74.29492 C148.275,74.29492 151.547,71.169922 151.547,65.60352 C151.547,52.8594 138.021,41.5312 121.42,41.5312 C116.684,41.5312 110.238,42.8984 105.746,45.0469 C109.115,47.0488 111.41,49.5391 112.924,52.5176 C114.877,51.7852 118.979,51.0527 121.42,51.0527 C132.26,51.0527 140.756,57.791 140.756,64.08984 C140.756,64.38281 140.658,64.72461 140.17,64.72461 L117.221,64.72461 C117.562,68.04492 116.146,72.439453 113.168,74.29492 L141.684,74.29492 Z M53.6953,64.5293 C53.207,64.5293 53.0605,64.23633 53.0605,63.8457 C53.0605,59.5977 61.6055,51.248 76.1074,51.248 C90.6582,51.248 99.203,59.5977 99.203,63.8457 C99.203,64.23633 99.057,64.5293 98.568,64.5293 L53.6953,64.5293 Z" id="Shape"></path>
                    </g>
                    <g id="Bold-S" transform="translate(1823.530000, 0.000000)">
                        <path d="M75.4238,37.5762 C84.9941,37.5762 92.709,29.2266 92.709,18.875 C92.709,8.7676 84.9941,0.6133 75.4238,0.6133 C65.9512,0.6133 58.1387,8.8652 58.1387,18.9238 C58.1875,29.2266 65.8535,37.5762 75.4238,37.5762 Z M30.5996,38.4062 C38.9492,38.4062 45.7363,31.082 45.7363,21.9512 C45.7363,13.1133 38.9004,5.8867 30.5996,5.8867 C22.2988,5.8867 15.4629,13.2109 15.4629,22 C15.5117,31.1309 22.25,38.4062 30.5996,38.4062 Z M120.297,38.4062 C128.646,38.4062 135.385,31.1309 135.43425,22 C135.482,13.2109 128.598,5.8867 120.297,5.8867 C111.996,5.8867 105.16,13.1133 105.16,21.9512 C105.16,31.082 111.947,38.4062 120.297,38.4062 Z M75.4238,28.8848 C70.8828,28.8848 67.0254,24.5879 67.0254,18.9238 C67.0254,13.5039 70.9316,9.2559 75.4238,9.2559 C80.0137,9.2559 83.8223,13.4551 83.8223,18.875 C83.8223,24.5391 80.0137,28.8848 75.4238,28.8848 Z M30.5996,29.9102 C27.0352,29.9102 23.959,26.4434 23.959,22 C23.959,17.8008 27.0352,14.3828 30.5996,14.3828 C34.1641,14.3828 37.2402,17.752 37.2402,21.9512 C37.2402,26.4434 34.1641,29.9102 30.5996,29.9102 Z M120.297,29.9102 C116.732,29.9102 113.656,26.4434 113.656,21.9512 C113.656,17.752 116.732,14.3828 120.297,14.3828 C123.861,14.3828 126.938,17.8008 126.938,22 C126.938,26.4434 123.861,29.9102 120.297,29.9102 Z M10.0918,73.9043 L38.8027,73.9043 C36.1172,72.244141 34.6523,68.48438 35.043,65.4082 L10.6777,65.4082 C10.1895,65.4082 10.043,65.11523 10.043,64.77344 C10.043,57.5469 19.2715,50.125 30.5996,50.125 C33.6758,50.125 37.6797,50.9551 40.1699,52.0293 C41.6348,49.4414 43.6855,47.293 46.6152,45.4863 C41.9766,43.0938 35.7754,41.6777 30.5996,41.6777 C14.2422,41.6777 0.76562,53.0547 0.76562,65.89648 C0.76562,71.072266 3.8418,73.9043 10.0918,73.9043 Z M140.805,73.9043 C147.055,73.9043 150.131,71.072266 150.131,65.89648 C150.131,53.0547 136.654,41.6777 120.297,41.6777 C115.121,41.6777 108.92,43.0938 104.33,45.4863 C107.211,47.293 109.262,49.4414 110.727,52.0293 C113.217,50.9551 117.221,50.125 120.297,50.125 C131.625,50.125 140.854,57.5469 140.854,64.77344 C140.854,65.11523 140.707,65.4082 140.268,65.4082 L115.854,65.4082 C116.244,68.48438 114.779,72.244141 112.094,73.9043 L140.805,73.9043 Z M52.1328,73.9043 L98.764,73.9043 C106.039,73.9043 109.604,71.414062 109.604,66.28711 C109.604,54.9102 95.639,41.6777 75.4238,41.6777 C55.2578,41.6777 41.2441,54.9102 41.2441,66.28711 C41.2441,71.414062 44.8574,73.9043 52.1328,73.9043 Z M51.8398,65.21289 C51.3027,65.21289 51.1074,64.96875 51.1074,64.5293 C51.1074,59.793 59.9453,50.3203 75.4238,50.3203 C90.9023,50.3203 99.74,59.793 99.74,64.5293 C99.74,64.96875 99.545,65.21289 99.057,65.21289 L51.8398,65.21289 Z" id="Shape"></path>
                    </g>
                    <g id="Semibold-S" transform="translate(1527.310000, 0.000000)">
                        <path d="M74.9844,37.2832 C84.4082,37.2832 92.074,28.9824 92.074,18.8262 C92.074,8.7676 84.4082,0.7598 74.9844,0.7598 C65.5605,0.7598 57.8457,8.8652 57.8457,18.875 C57.8457,29.0312 65.5117,37.2832 74.9844,37.2832 Z M30.4043,38.1621 C38.6074,38.1621 45.2969,30.8379 45.2969,21.9023 C45.2969,13.1133 38.6562,5.9844 30.4043,5.9844 C22.2012,5.9844 15.4629,13.2598 15.4629,21.9512 C15.4629,30.8867 22.2012,38.1621 30.4043,38.1621 Z M119.564,38.1621 C127.719,38.1621 134.457264,30.8867 134.457264,21.9512 C134.506,13.2598 127.719,5.9844 119.564,5.9844 C111.312,5.9844 104.623,13.1133 104.623,21.9023 C104.623,30.8379 111.312,38.1621 119.564,38.1621 Z M74.9844,29.4219 C70.1992,29.4219 66.0488,24.7832 66.0488,18.875 C66.0488,13.0645 70.1504,8.6699 74.9844,8.6699 C79.8184,8.6699 83.8711,13.0156 83.8711,18.8262 C83.8711,24.7344 79.7695,29.4219 74.9844,29.4219 Z M30.4043,30.3984 C26.5469,30.3984 23.2266,26.6387 23.2266,21.9512 C23.2266,17.4102 26.5469,13.7969 30.4043,13.7969 C34.3105,13.7969 37.582,17.3613 37.582,21.9023 C37.582,26.6387 34.2617,30.3984 30.4043,30.3984 Z M119.564,30.3984 C115.658,30.3984 112.387,26.6387 112.387,21.9023 C112.387,17.3613 115.609,13.7969 119.564,13.7969 C123.422,13.7969 126.693,17.4102 126.693,21.9512 C126.693,26.6387 123.373,30.3984 119.564,30.3984 Z M9.7012,73.61133 L38.5586,73.61133 C36.1172,72.146484 34.6035,68.77734 34.9941,65.84766 L9.6523,65.84766 C9.2129,65.84766 9.0176,65.60352 9.0176,65.26172 C9.0176,57.3516 18.7832,49.4902 30.4043,49.4902 C33.9199,49.4902 37.875,50.3691 40.7559,51.6875 C42.1719,49.3926 44.0762,47.4883 46.6152,45.8281 C41.9277,43.2402 35.873,41.7754 30.4043,41.7754 C14.2422,41.7754 0.76562,53.1523 0.76562,66.0918 C0.76562,71.023438 3.7441,73.61133 9.7012,73.61133 Z M140.219,73.61133 C146.176,73.61133 149.154,71.023438 149.154,66.0918 C149.154,53.1523 135.678,41.7754 119.564,41.7754 C114.047,41.7754 108.041,43.2402 103.305,45.8281 C105.893,47.4883 107.748,49.3926 109.164,51.6875 C112.045,50.3691 116,49.4902 119.564,49.4902 C131.186,49.4902 140.902,57.3516 140.902,65.26172 C140.902,65.60352 140.707,65.84766 140.268,65.84766 L114.926,65.84766 C115.316,68.77734 113.852,72.146484 111.361,73.61133 L140.219,73.61133 Z M51.5469,73.61133 L98.373,73.61133 C105.502,73.61133 108.969,71.316406 108.969,66.43359 C108.969,55.5449 95.443,41.7754 74.9355,41.7754 C54.4766,41.7754 40.9512,55.5449 40.9512,66.43359 C40.9512,71.316406 44.418,73.61133 51.5469,73.61133 Z M50.5215,65.70117 C50.0332,65.70117 49.7891,65.45703 49.7891,65.01758 C49.7891,59.9395 58.8223,49.6855 74.9355,49.6855 C91.098,49.6855 100.131,59.9395 100.131,65.01758 C100.131,65.45703 99.887,65.70117 99.398,65.70117 L50.5215,65.70117 Z" id="Shape"></path>
                    </g>
                    <g id="Medium-S" transform="translate(1230.960000, 0.000000)">
                        <path d="M74.5938,37.0879 C83.9199,37.0879 91.586,28.8359 91.586,18.7285 C91.586,8.7676 84.0176,0.8574 74.5938,0.8574 C65.2676,0.8574 57.6016,8.8652 57.6016,18.8262 C57.6504,28.8359 65.2676,37.0879 74.5938,37.0879 Z M30.2578,37.9668 C38.3633,37.9668 45.0039,30.6914 45.0039,21.8047 C45.0039,13.1133 38.4121,6.082 30.2578,6.082 C22.1523,6.082 15.4629,13.2598 15.4629,21.9023 C15.4629,30.7402 22.1523,37.9668 30.2578,37.9668 Z M118.979,37.9668 C127.035,37.9668 133.725255,30.7402 133.725255,21.9023 C133.773,13.2598 127.035,6.082 118.979,6.082 C110.775,6.082 104.184,13.1133 104.184,21.8047 C104.184,30.6914 110.873,37.9668 118.979,37.9668 Z M74.5938,29.7637 C69.6621,29.7637 65.3164,24.9785 65.3164,18.8262 C65.3164,12.7715 69.5645,8.1816 74.5938,8.1816 C79.6719,8.1816 83.8711,12.7227 83.8711,18.7285 C83.8711,24.8809 79.623,29.7637 74.5938,29.7637 Z M30.2578,30.7402 C26.2051,30.7402 22.6895,26.7852 22.6895,21.9023 C22.6895,17.1172 26.1562,13.3086 30.2578,13.3086 C34.457,13.3086 37.8262,17.0684 37.8262,21.8047 C37.8262,26.7852 34.3105,30.7402 30.2578,30.7402 Z M118.979,30.7402 C114.877,30.7402 111.361,26.7852 111.361,21.8047 C111.361,17.0684 114.779,13.3086 118.979,13.3086 C123.08,13.3086 126.547,17.1172 126.547,21.9023 C126.547,26.7852 123.031,30.7402 118.979,30.7402 Z M9.4082,73.41602 L38.3633,73.41602 C36.1172,72.0488281 34.6035,69.02148 34.9941,66.23828 L8.8711,66.23828 C8.4805,66.23828 8.2363,65.99414 8.2363,65.60352 C8.2363,57.2051 18.3926,49.002 30.2578,49.002 C34.1152,49.002 38.0215,49.8809 41.1953,51.3945 C42.5625,49.3926 44.3203,47.5859 46.6152,46.0723 C41.8789,43.3379 35.9707,41.8242 30.2578,41.8242 C14.2422,41.8242 0.76562,53.2988 0.76562,66.28711 C0.76562,70.97461 3.6465,73.41602 9.4082,73.41602 Z M139.779,73.41602 C145.541,73.41602 148.422,70.97461 148.422,66.28711 C148.422,53.2988 134.945,41.8242 118.979,41.8242 C113.217,41.8242 107.357,43.3379 102.572,46.0723 C104.867,47.5859 106.625,49.3926 108.041,51.3945 C111.166,49.8809 115.121,49.002 118.979,49.002 C130.844,49.002 140.951,57.2051 140.951,65.60352 C140.951,65.99414 140.756,66.23828 140.316,66.23828 L114.242,66.23828 C114.633,69.02148 113.119,72.0488281 110.824,73.41602 L139.779,73.41602 Z M51.1074,73.41602 L98.08,73.41602 C105.111,73.41602 108.48,71.21875 108.48,66.58008 C108.48,56.0332 95.297,41.873 74.5938,41.873 C53.8906,41.873 40.707,56.0332 40.707,66.58008 C40.707,71.21875 44.0762,73.41602 51.1074,73.41602 Z M49.5449,66.0918 C49.0078,66.0918 48.7637,65.84766 48.7637,65.35938 C48.7637,60.0371 57.9922,49.1973 74.5938,49.1973 C91.244,49.1973 100.424,60.0371 100.424,65.35938 C100.424,65.84766 100.18,66.0918 99.643,66.0918 L49.5449,66.0918 Z" id="Shape"></path>
                    </g>
                    <g id="Regular-S" transform="translate(934.710000, 1.000000)">
                        <path d="M74.1543,35.8438 C83.334,35.8438 90.9512,27.5918 90.9512,17.6797 C90.9512,7.7676 83.4316,0.0039 74.1543,0.0039 C64.877,0.0039 57.3086,7.9141 57.3086,17.7773 C57.3086,27.6406 64.9258,35.8438 74.1543,35.8438 Z M30.0625,36.7227 C38.0215,36.7227 44.6133,29.4961 44.6133,20.7559 C44.6133,12.1133 38.168,5.2285 30.0625,5.2285 C22.0547,5.2285 15.4629,12.2598 15.4629,20.8047 C15.4629,29.5449 22.1035,36.7227 30.0625,36.7227 Z M118.197,36.7227 C126.156,36.7227 132.797,29.5449 132.797,20.8047 C132.797,12.2598 126.205,5.2285 118.197,5.2285 C110.092,5.2285 103.646,12.1133 103.646,20.7559 C103.646,29.4961 110.238,36.7227 118.197,36.7227 Z M74.1543,29.252 C68.9297,29.252 64.3887,24.1738 64.3887,17.7773 C64.3398,11.3809 68.7832,6.5957 74.1543,6.5957 C79.5254,6.5957 83.8711,11.2832 83.8711,17.6797 C83.8711,24.0762 79.3789,29.252 74.1543,29.252 Z M30.0625,30.2285 C25.7168,30.2285 21.957,25.9805 21.957,20.8047 C21.957,15.7754 25.6191,11.7227 30.0625,11.7227 C34.5547,11.7227 38.168,15.6777 38.168,20.7559 C38.168,25.9805 34.4082,30.2285 30.0625,30.2285 Z M118.197,30.2285 C113.852,30.2285 110.092,25.9805 110.092,20.7559 C110.092,15.6777 113.705,11.7227 118.197,11.7227 C122.641,11.7227 126.303,15.7754 126.303,20.8047 C126.303,25.9805 122.543,30.2285 118.197,30.2285 Z M9.0664,72.12305 L38.168,72.12305 C36.0684,70.9511719 34.5547,68.31445 34.9453,65.67773 L7.8945,65.67773 C7.5039,65.67773 7.2598,65.48242 7.2598,65.04297 C7.2598,56.0098 17.8555,47.3672 30.0137,47.3672 C34.3594,47.3672 38.2656,48.2949 41.7324,50.0527 C43.0996,48.3438 44.7109,46.7812 46.6641,45.4141 C41.7812,42.4355 36.0684,40.9219 30.0137,40.9219 C14.2422,40.9219 0.76562,52.3965 0.76562,65.48242 C0.76562,69.92578 3.5488,72.12305 9.0664,72.12305 Z M139.193,72.12305 C144.711,72.12305 147.494,69.92578 147.494,65.48242 C147.494,52.3965 134.018,40.9219 118.246,40.9219 C112.191,40.9219 106.479,42.4355 101.596,45.4141 C103.549,46.7812 105.16,48.3438 106.527,50.0527 C110.043,48.2949 113.9,47.3672 118.246,47.3672 C130.404,47.3672 141,56.0098 141,65.04297 C141,65.48242 140.756,65.67773 140.365,65.67773 L113.314,65.67773 C113.705,68.31445 112.191,70.9511719 110.092,72.12305 L139.193,72.12305 Z M50.5215,72.12305 L97.738,72.12305 C104.574,72.12305 107.846,70.121094 107.846,65.72656 C107.846,55.668 95.102,40.9707 74.1055,40.9707 C53.1582,40.9707 40.4141,55.668 40.4141,65.72656 C40.4141,70.121094 43.6855,72.12305 50.5215,72.12305 Z M48.2754,65.53125 C47.7383,65.53125 47.4453,65.38477 47.4453,64.84766 C47.4453,59.1348 56.8691,47.5625 74.1055,47.5625 C91.391,47.5625 100.766,59.1348 100.766,64.84766 C100.766,65.38477 100.521,65.53125 99.984,65.53125 L48.2754,65.53125 Z" id="Shape"></path>
                    </g>
                    <g id="Light-S" transform="translate(638.420000, 1.000000)">
                        <path d="M73.7148,35.8926 C82.748,35.8926 90.0234,27.9336 90.0234,18.1191 C90.0234,8.5 82.748,0.834 73.7148,0.834 C64.7305,0.834 57.4062,8.5977 57.4062,18.2168 C57.4551,27.9824 64.7305,35.8926 73.7148,35.8926 Z M73.7148,30.8145 C67.8066,30.8145 62.875,25.248 62.875,18.2168 C62.8262,11.332 67.7578,5.9121 73.7148,5.9121 C79.7207,5.9121 84.6035,11.2344 84.6035,18.1191 C84.6035,25.1992 79.6719,30.8145 73.7148,30.8145 Z M29.623,36.7715 C37.4844,36.7715 43.832,29.8379 43.832,21.1953 C43.832,12.7969 37.4844,6.0098 29.623,6.0098 C21.8594,6.0098 15.4629,12.8945 15.5114226,21.2441 C15.5114226,29.8379 21.8594,36.7715 29.623,36.7715 Z M117.807,36.7715 C125.619,36.7715 131.918,29.8379 131.967,21.2441 C131.967,12.8945 125.57,6.0098 117.807,6.0098 C109.945,6.0098 103.646,12.7969 103.646,21.1953 C103.646,29.8379 109.945,36.7715 117.807,36.7715 Z M29.623,31.7422 C24.6914,31.7422 20.541,27.0547 20.541,21.2441 C20.541,15.6289 24.6426,11.0391 29.623,11.0391 C34.7012,11.0391 38.8027,15.5312 38.8027,21.1953 C38.8027,27.0547 34.6523,31.7422 29.623,31.7422 Z M117.807,31.7422 C112.777,31.7422 108.627,27.0547 108.627,21.1953 C108.627,15.5312 112.729,11.0391 117.807,11.0391 C122.787,11.0391 126.889,15.6289 126.889,21.2441 C126.889,27.0547 122.787,31.7422 117.807,31.7422 Z M8.1387,71.585938 L38.9004,71.585938 C37.2891,70.658203 36.0195,68.65625 36.1172,66.60547 L7.3574,66.60547 C6.2832,66.60547 5.7949,66.16602 5.7949,65.14062 C5.7949,55.2773 16.8301,46.293 29.623,46.293 C34.7988,46.293 39.4863,47.6113 43.3926,50.1016 C44.4668,48.7832 45.7363,47.6113 47.2012,46.5371 C42.2207,43.0703 36.1172,41.2637 29.623,41.2637 C13.3633,41.2637 0.76562,53.0312 0.76562,65.43359 C0.76562,69.58398 3.207,71.585938 8.1387,71.585938 Z M139.291,71.585938 C144.223,71.585938 146.664,69.58398 146.664,65.43359 C146.664,53.0312 134.066,41.2637 117.807,41.2637 C111.312,41.2637 105.209,43.0703 100.229,46.5371 C101.742,47.6113 102.963,48.7832 104.037,50.1016 C107.943,47.6113 112.631,46.293 117.807,46.293 C130.648,46.293 141.635,55.2773 141.635,65.14062 C141.635,66.16602 141.195,66.60547 140.072,66.60547 L111.312,66.60547 C111.459,68.65625 110.141,70.658203 108.529,71.585938 L139.291,71.585938 Z M49.3008,71.585938 L98.031,71.585938 C104.037,71.585938 106.869,69.73047 106.869,65.72656 C106.869,55.7168 94.271,41.3613 73.666,41.3613 C53.1094,41.3613 40.5117,55.7168 40.5117,65.72656 C40.5117,69.73047 43.3438,71.585938 49.3008,71.585938 Z M47.7871,66.45898 C46.4199,66.45898 45.9316,66.11719 45.9316,65.0918 C45.9316,58.3047 55.8926,46.4883 73.666,46.4883 C91.439,46.4883 101.449,58.3047 101.449,65.0918 C101.449,66.11719 100.961,66.45898 99.545,66.45898 L47.7871,66.45898 Z" id="Shape"></path>
                    </g>
                    <g id="Thin-S" transform="translate(342.244000, 2.000000)">
                        <path d="M73.1777,34.9902 C81.918,34.9902 88.8027,27.4219 88.8027,17.7539 C88.8027,8.4277 81.7715,0.9082 73.1777,0.9082 C64.584,0.9082 57.5039,8.5254 57.5524492,17.7539 C57.6504,27.4219 64.4375,34.9902 73.1777,34.9902 Z M73.1777,31.8164 C66.293,31.8164 60.873,25.7129 60.873,17.7539 C60.7754,10.2344 66.3906,4.082 73.1777,4.082 C79.9648,4.082 85.4824,10.1855 85.4824,17.7539 C85.4824,25.7129 80.0625,31.8164 73.1777,31.8164 Z M29.1348,35.8203 C36.752,35.8203 42.7578,29.2285 42.7578,20.7324 C42.7578,12.6758 36.6055,6.0352 29.1348,6.0352 C21.6152,6.0352 15.4629,12.7246 15.5117,20.7812 C15.6094,29.2773 21.5176,35.8203 29.1348,35.8203 Z M117.221,35.8203 C124.887,35.8203 130.746,29.2773 130.844,20.7812 C130.893,12.7246 124.74,6.0352 117.221,6.0352 C109.75,6.0352 103.598,12.6758 103.598,20.7324 C103.598,29.2285 109.604,35.8203 117.221,35.8203 Z M29.1348,32.6953 C23.2754,32.6953 18.6855,27.5195 18.6855,20.7812 C18.6855,14.4336 23.373,9.1602 29.1348,9.1602 C34.8965,9.1602 39.584,14.3848 39.584,20.7324 C39.584,27.5195 34.9941,32.6953 29.1348,32.6953 Z M117.221,32.6953 C111.361,32.6953 106.771,27.5195 106.771,20.7324 C106.771,14.3848 111.459,9.1602 117.221,9.1602 C122.982,9.1602 127.67,14.4336 127.67,20.7812 C127.67,27.5195 123.08,32.6953 117.221,32.6953 Z M6.918,69.853516 L39.9258,69.853516 C38.8516,69.316406 37.875,68.0957 37.6797,66.77734 L6.625,66.77734 C4.6719,66.77734 3.9395,66.04492 3.9395,64.28711 C3.9395,53.3496 15.4141,43.8281 29.0371,43.8281 C35.4336,43.8281 41.1465,45.6348 45.5898,49.1504 C46.2734,48.3691 47.0547,47.6855 47.9336,47.002 C42.7578,42.8516 36.2148,40.7031 29.0371,40.7031 C12.2402,40.7031 0.76562,52.8613 0.76562,64.43359 C0.76562,68.0957 2.8164,69.853516 6.918,69.853516 Z M139.438,69.853516 C143.588,69.853516 145.59,68.0957 145.59,64.43359 C145.59,52.8613 134.115,40.7031 117.318,40.7031 C110.141,40.7031 103.598,42.8516 98.422,47.002 C99.301,47.6855 100.082,48.3691 100.766,49.1504 C105.209,45.6348 110.922,43.8281 117.318,43.8281 C130.941,43.8281 142.416,53.3496 142.416,64.28711 C142.416,66.04492 141.684,66.77734 139.73,66.77734 L108.676,66.77734 C108.48,68.0957 107.504,69.316406 106.43,69.853516 L139.438,69.853516 Z M47.7383,69.853516 L98.471,69.853516 C103.305,69.853516 105.6,68.24219 105.6,64.67773 C105.6,54.7656 93.148,40.8496 73.1289,40.8496 C53.0605,40.8496 40.6094,54.7656 40.6094,64.67773 C40.6094,68.24219 42.9043,69.853516 47.7383,69.853516 Z M47.1523,66.67969 C44.7109,66.67969 43.8809,66.09375 43.8809,64.43359 C43.8809,56.2305 54.6719,44.0234 73.1289,44.0234 C91.537,44.0234 102.328,56.2305 102.328,64.43359 C102.328,66.09375 101.498,66.67969 99.057,66.67969 L47.1523,66.67969 Z" id="Shape"></path>
                    </g>
                    <g id="Ultralight-S" transform="translate(45.802000, 3.000000)">
                        <path d="M72.8848,34.0391 C81.5273,34.0391 88.168,26.666 88.168,17.0957 C88.168,7.9648 81.2832,0.4453 72.8848,0.4453 C64.4375,0.4453 57.5527,8.0137 57.6504,17.0957 C57.748,26.666 64.291,34.0391 72.8848,34.0391 Z M72.8848,31.8418 C65.5605,31.8418 59.8477,25.4453 59.8477,17.0957 C59.75,9.1855 65.6582,2.6426 72.8848,2.6426 C80.0625,2.6426 85.9707,9.1367 85.9707,17.0957 C85.9707,25.4453 80.2578,31.8418 72.8848,31.8418 Z M28.8418,34.8691 C36.4102,34.8691 42.2207,28.4727 42.2207,20.0742 C42.2207,12.1152 36.166,5.5723 28.8418,5.5723 C21.5176,5.5723 15.4629,12.1641 15.5605,20.0742 C15.6582,28.4727 21.3223,34.8691 28.8418,34.8691 Z M116.928,34.8691 C124.496,34.8691 130.16,28.4727 130.258,20.0742 C130.355,12.1641 124.301,5.5723 116.928,5.5723 C109.652,5.5723 103.598,12.1152 103.598,20.0742 C103.598,28.4727 109.408,34.8691 116.928,34.8691 Z M28.8418,32.6719 C22.543,32.6719 17.709,27.252 17.709,20.0742 C17.709,13.3359 22.6895,7.7207 28.8418,7.7207 C34.9941,7.7207 40.0234,13.2871 40.0234,20.0742 C40.0234,27.252 35.1406,32.6719 28.8418,32.6719 Z M116.928,32.6719 C110.629,32.6719 105.795,27.252 105.795,20.0742 C105.795,13.2871 110.824,7.7207 116.928,7.7207 C123.08,7.7207 128.061,13.3359 128.061,20.0742 C128.061,27.252 123.227,32.6719 116.928,32.6719 Z M6.2832,68.511719 L40.4629,68.511719 C39.6816,68.121094 38.8516,67.33984 38.4609,66.36328 L6.2832,66.36328 C3.8418,66.36328 2.9629,65.5332 2.9629,63.38477 C2.9629,51.8125 14.6816,42.0957 28.7441,42.0957 C35.7754,42.0957 42.0254,44.1465 46.7129,48.1992 C47.25,47.7109 47.7871,47.2227 48.3242,46.7344 C43.0508,42.291 36.2637,39.9473 28.7441,39.9473 C11.6543,39.9473 0.76562,52.3008 0.76562,63.38477 C0.76562,66.85156 2.5723,68.511719 6.2832,68.511719 Z M139.535,68.511719 C143.246,68.511719 145.053,66.85156 145.053,63.38477 C145.053,52.3008 134.164,39.9473 117.025,39.9473 C109.555,39.9473 102.768,42.291 97.445,46.7344 C98.031,47.2227 98.568,47.7109 99.105,48.1992 C103.793,44.1465 110.043,42.0957 117.025,42.0957 C131.088,42.0957 142.855,51.8125 142.855,63.38477 C142.855,65.5332 141.977,66.36328 139.535,66.36328 L107.309,66.36328 C106.918,67.33984 106.088,68.121094 105.355,68.511719 L139.535,68.511719 Z M46.957,68.511719 L98.666,68.511719 C102.963,68.511719 104.965,66.99805 104.965,63.67773 C104.965,53.8145 92.611,40.0938 72.7871,40.0938 C53.0117,40.0938 40.6582,53.8145 40.6582,63.67773 C40.6582,66.99805 42.6602,68.511719 46.957,68.511719 Z M46.8594,66.31445 C43.7832,66.31445 42.8555,65.63086 42.8555,63.62891 C42.8555,54.6934 54.0371,42.291 72.7871,42.291 C91.586,42.291 102.768,54.6934 102.768,63.62891 C102.768,65.63086 101.84,66.31445 98.764,66.31445 L46.8594,66.31445 Z" id="Shape"></path>
                    </g>
                </g>
            </g>
        </g>
    </g>
</svg>